<?xml version="1.0" encoding="utf-8" standalone="no"?>
<!DOCTYPE svg PUBLIC "-//W3C//DTD SVG 1.1//EN"
  "http://www.w3.org/Graphics/SVG/1.1/DTD/svg11.dtd">
<svg xmlns:xlink="http://www.w3.org/1999/xlink" width="864pt" height="684pt" viewBox="0 0 864 684" xmlns="http://www.w3.org/2000/svg" version="1.1">
 <metadata>
  <rdf:RDF xmlns:dc="http://purl.org/dc/elements/1.1/" xmlns:cc="http://creativecommons.org/ns#" xmlns:rdf="http://www.w3.org/1999/02/22-rdf-syntax-ns#">
   <cc:Work>
    <dc:type rdf:resource="http://purl.org/dc/dcmitype/StillImage"/>
    <dc:date>2026-09-17T20:55:46.192157</dc:date>
    <dc:format>image/svg+xml</dc:format>
    <dc:creator>
     <cc:Agent>
      <dc:title>Matplotlib v3.10.8, https://matplotlib.org/</dc:title>
     </cc:Agent>
    </dc:creator>
   </cc:Work>
  </rdf:RDF>
 </metadata>
 <defs>
  <style type="text/css">*{stroke-linejoin: round; stroke-linecap: butt}</style>
 </defs>
 <g id="figure_1">
  <g id="patch_1">
   <path d="M 0 684
L 864 684
L 864 0
L 0 0
z
" style="fill: #f6f3ee"/>
  </g>
  <g id="axes_1">
   <g id="patch_2">
    <path d="M 254.88 584.82
L 807.84 584.82
L 807.84 129.96
L 254.88 129.96
z
" style="fill: #fffefa"/>
   </g>
   <g id="matplotlib.axis_1">
    <g id="xtick_1">
     <g id="line2d_1">
      <path d="M 254.88 584.82
L 254.88 129.96
" clip-path="url(#pe9e6043d12)" style="fill: none; stroke: #d9d6ce; stroke-width: 0.6; stroke-linecap: square"/>
     </g>
     <g id="line2d_2"/>
     <g id="text_1">
      <!-- 0 -->
      <g style="fill: #68736c" transform="translate(251.0625 601.938125) scale(0.12 -0.12)">
       <defs>
        <path id="DejaVuSans-30" d="M 2034 4250
Q 1547 4250 1301 3770
Q 1056 3291 1056 2328
Q 1056 1369 1301 889
Q 1547 409 2034 409
Q 2525 409 2770 889
Q 3016 1369 3016 2328
Q 3016 3291 2770 3770
Q 2525 4250 2034 4250
z
M 2034 4750
Q 2819 4750 3233 4129
Q 3647 3509 3647 2328
Q 3647 1150 3233 529
Q 2819 -91 2034 -91
Q 1250 -91 836 529
Q 422 1150 422 2328
Q 422 3509 836 4129
Q 1250 4750 2034 4750
z
" transform="scale(0.015625)"/>
       </defs>
       <use xlink:href="#DejaVuSans-30"/>
      </g>
     </g>
    </g>
    <g id="xtick_2">
     <g id="line2d_3">
      <path d="M 378.308571 584.82
L 378.308571 129.96
" clip-path="url(#pe9e6043d12)" style="fill: none; stroke: #d9d6ce; stroke-width: 0.6; stroke-linecap: square"/>
     </g>
     <g id="line2d_4"/>
     <g id="text_2">
      <!-- 25 -->
      <g style="fill: #68736c" transform="translate(370.673571 601.938125) scale(0.12 -0.12)">
       <defs>
        <path id="DejaVuSans-32" d="M 1228 531
L 3431 531
L 3431 0
L 469 0
L 469 531
Q 828 903 1448 1529
Q 2069 2156 2228 2338
Q 2531 2678 2651 2914
Q 2772 3150 2772 3378
Q 2772 3750 2511 3984
Q 2250 4219 1831 4219
Q 1534 4219 1204 4116
Q 875 4013 500 3803
L 500 4441
Q 881 4594 1212 4672
Q 1544 4750 1819 4750
Q 2544 4750 2975 4387
Q 3406 4025 3406 3419
Q 3406 3131 3298 2873
Q 3191 2616 2906 2266
Q 2828 2175 2409 1742
Q 1991 1309 1228 531
z
" transform="scale(0.015625)"/>
        <path id="DejaVuSans-35" d="M 691 4666
L 3169 4666
L 3169 4134
L 1269 4134
L 1269 2991
Q 1406 3038 1543 3061
Q 1681 3084 1819 3084
Q 2600 3084 3056 2656
Q 3513 2228 3513 1497
Q 3513 744 3044 326
Q 2575 -91 1722 -91
Q 1428 -91 1123 -41
Q 819 9 494 109
L 494 744
Q 775 591 1075 516
Q 1375 441 1709 441
Q 2250 441 2565 725
Q 2881 1009 2881 1497
Q 2881 1984 2565 2268
Q 2250 2553 1709 2553
Q 1456 2553 1204 2497
Q 953 2441 691 2322
L 691 4666
z
" transform="scale(0.015625)"/>
       </defs>
       <use xlink:href="#DejaVuSans-32"/>
       <use xlink:href="#DejaVuSans-35" transform="translate(63.623047 0)"/>
      </g>
     </g>
    </g>
    <g id="xtick_3">
     <g id="line2d_5">
      <path d="M 501.737143 584.82
L 501.737143 129.96
" clip-path="url(#pe9e6043d12)" style="fill: none; stroke: #d9d6ce; stroke-width: 0.6; stroke-linecap: square"/>
     </g>
     <g id="line2d_6"/>
     <g id="text_3">
      <!-- 50 -->
      <g style="fill: #68736c" transform="translate(494.102143 601.938125) scale(0.12 -0.12)">
       <use xlink:href="#DejaVuSans-35"/>
       <use xlink:href="#DejaVuSans-30" transform="translate(63.623047 0)"/>
      </g>
     </g>
    </g>
    <g id="xtick_4">
     <g id="line2d_7">
      <path d="M 625.165714 584.82
L 625.165714 129.96
" clip-path="url(#pe9e6043d12)" style="fill: none; stroke: #d9d6ce; stroke-width: 0.6; stroke-linecap: square"/>
     </g>
     <g id="line2d_8"/>
     <g id="text_4">
      <!-- 75 -->
      <g style="fill: #68736c" transform="translate(617.530714 601.938125) scale(0.12 -0.12)">
       <defs>
        <path id="DejaVuSans-37" d="M 525 4666
L 3525 4666
L 3525 4397
L 1831 0
L 1172 0
L 2766 4134
L 525 4134
L 525 4666
z
" transform="scale(0.015625)"/>
       </defs>
       <use xlink:href="#DejaVuSans-37"/>
       <use xlink:href="#DejaVuSans-35" transform="translate(63.623047 0)"/>
      </g>
     </g>
    </g>
    <g id="xtick_5">
     <g id="line2d_9">
      <path d="M 748.594286 584.82
L 748.594286 129.96
" clip-path="url(#pe9e6043d12)" style="fill: none; stroke: #d9d6ce; stroke-width: 0.6; stroke-linecap: square"/>
     </g>
     <g id="line2d_10"/>
     <g id="text_5">
      <!-- 100 -->
      <g style="fill: #68736c" transform="translate(737.141786 601.938125) scale(0.12 -0.12)">
       <defs>
        <path id="DejaVuSans-31" d="M 794 531
L 1825 531
L 1825 4091
L 703 3866
L 703 4441
L 1819 4666
L 2450 4666
L 2450 531
L 3481 531
L 3481 0
L 794 0
L 794 531
z
" transform="scale(0.015625)"/>
       </defs>
       <use xlink:href="#DejaVuSans-31"/>
       <use xlink:href="#DejaVuSans-30" transform="translate(63.623047 0)"/>
       <use xlink:href="#DejaVuSans-30" transform="translate(127.246094 0)"/>
      </g>
     </g>
    </g>
    <g id="text_6">
     <!-- Topic Top-1 (%) -->
     <g style="fill: #68736c" transform="translate(489.748203 616.792031) scale(0.11 -0.11)">
      <defs>
       <path id="DejaVuSans-54" d="M -19 4666
L 3928 4666
L 3928 4134
L 2272 4134
L 2272 0
L 1638 0
L 1638 4134
L -19 4134
L -19 4666
z
" transform="scale(0.015625)"/>
       <path id="DejaVuSans-6f" d="M 1959 3097
Q 1497 3097 1228 2736
Q 959 2375 959 1747
Q 959 1119 1226 758
Q 1494 397 1959 397
Q 2419 397 2687 759
Q 2956 1122 2956 1747
Q 2956 2369 2687 2733
Q 2419 3097 1959 3097
z
M 1959 3584
Q 2709 3584 3137 3096
Q 3566 2609 3566 1747
Q 3566 888 3137 398
Q 2709 -91 1959 -91
Q 1206 -91 779 398
Q 353 888 353 1747
Q 353 2609 779 3096
Q 1206 3584 1959 3584
z
" transform="scale(0.015625)"/>
       <path id="DejaVuSans-70" d="M 1159 525
L 1159 -1331
L 581 -1331
L 581 3500
L 1159 3500
L 1159 2969
Q 1341 3281 1617 3432
Q 1894 3584 2278 3584
Q 2916 3584 3314 3078
Q 3713 2572 3713 1747
Q 3713 922 3314 415
Q 2916 -91 2278 -91
Q 1894 -91 1617 61
Q 1341 213 1159 525
z
M 3116 1747
Q 3116 2381 2855 2742
Q 2594 3103 2138 3103
Q 1681 3103 1420 2742
Q 1159 2381 1159 1747
Q 1159 1113 1420 752
Q 1681 391 2138 391
Q 2594 391 2855 752
Q 3116 1113 3116 1747
z
" transform="scale(0.015625)"/>
       <path id="DejaVuSans-69" d="M 603 3500
L 1178 3500
L 1178 0
L 603 0
L 603 3500
z
M 603 4863
L 1178 4863
L 1178 4134
L 603 4134
L 603 4863
z
" transform="scale(0.015625)"/>
       <path id="DejaVuSans-63" d="M 3122 3366
L 3122 2828
Q 2878 2963 2633 3030
Q 2388 3097 2138 3097
Q 1578 3097 1268 2742
Q 959 2388 959 1747
Q 959 1106 1268 751
Q 1578 397 2138 397
Q 2388 397 2633 464
Q 2878 531 3122 666
L 3122 134
Q 2881 22 2623 -34
Q 2366 -91 2075 -91
Q 1284 -91 818 406
Q 353 903 353 1747
Q 353 2603 823 3093
Q 1294 3584 2113 3584
Q 2378 3584 2631 3529
Q 2884 3475 3122 3366
z
" transform="scale(0.015625)"/>
       <path id="DejaVuSans-20" transform="scale(0.015625)"/>
       <path id="DejaVuSans-2d" d="M 313 2009
L 1997 2009
L 1997 1497
L 313 1497
L 313 2009
z
" transform="scale(0.015625)"/>
       <path id="DejaVuSans-28" d="M 1984 4856
Q 1566 4138 1362 3434
Q 1159 2731 1159 2009
Q 1159 1288 1364 580
Q 1569 -128 1984 -844
L 1484 -844
Q 1016 -109 783 600
Q 550 1309 550 2009
Q 550 2706 781 3412
Q 1013 4119 1484 4856
L 1984 4856
z
" transform="scale(0.015625)"/>
       <path id="DejaVuSans-25" d="M 4653 2053
Q 4381 2053 4226 1822
Q 4072 1591 4072 1178
Q 4072 772 4226 539
Q 4381 306 4653 306
Q 4919 306 5073 539
Q 5228 772 5228 1178
Q 5228 1588 5073 1820
Q 4919 2053 4653 2053
z
M 4653 2450
Q 5147 2450 5437 2106
Q 5728 1763 5728 1178
Q 5728 594 5436 251
Q 5144 -91 4653 -91
Q 4153 -91 3862 251
Q 3572 594 3572 1178
Q 3572 1766 3864 2108
Q 4156 2450 4653 2450
z
M 1428 4353
Q 1159 4353 1004 4120
Q 850 3888 850 3481
Q 850 3069 1003 2837
Q 1156 2606 1428 2606
Q 1700 2606 1854 2837
Q 2009 3069 2009 3481
Q 2009 3884 1853 4118
Q 1697 4353 1428 4353
z
M 4250 4750
L 4750 4750
L 1831 -91
L 1331 -91
L 4250 4750
z
M 1428 4750
Q 1922 4750 2215 4408
Q 2509 4066 2509 3481
Q 2509 2891 2217 2550
Q 1925 2209 1428 2209
Q 931 2209 642 2551
Q 353 2894 353 3481
Q 353 4063 643 4406
Q 934 4750 1428 4750
z
" transform="scale(0.015625)"/>
       <path id="DejaVuSans-29" d="M 513 4856
L 1013 4856
Q 1481 4119 1714 3412
Q 1947 2706 1947 2009
Q 1947 1309 1714 600
Q 1481 -109 1013 -844
L 513 -844
Q 928 -128 1133 580
Q 1338 1288 1338 2009
Q 1338 2731 1133 3434
Q 928 4138 513 4856
z
" transform="scale(0.015625)"/>
      </defs>
      <use xlink:href="#DejaVuSans-54"/>
      <use xlink:href="#DejaVuSans-6f" transform="translate(44.083984 0)"/>
      <use xlink:href="#DejaVuSans-70" transform="translate(105.265625 0)"/>
      <use xlink:href="#DejaVuSans-69" transform="translate(168.742188 0)"/>
      <use xlink:href="#DejaVuSans-63" transform="translate(196.525391 0)"/>
      <use xlink:href="#DejaVuSans-20" transform="translate(251.505859 0)"/>
      <use xlink:href="#DejaVuSans-54" transform="translate(283.292969 0)"/>
      <use xlink:href="#DejaVuSans-6f" transform="translate(327.376953 0)"/>
      <use xlink:href="#DejaVuSans-70" transform="translate(388.558594 0)"/>
      <use xlink:href="#DejaVuSans-2d" transform="translate(452.035156 0)"/>
      <use xlink:href="#DejaVuSans-31" transform="translate(488.119141 0)"/>
      <use xlink:href="#DejaVuSans-20" transform="translate(551.742188 0)"/>
      <use xlink:href="#DejaVuSans-28" transform="translate(583.529297 0)"/>
      <use xlink:href="#DejaVuSans-25" transform="translate(622.542969 0)"/>
      <use xlink:href="#DejaVuSans-29" transform="translate(717.5625 0)"/>
     </g>
    </g>
   </g>
   <g id="matplotlib.axis_2">
    <g id="ytick_1">
     <g id="line2d_11"/>
     <g id="text_7">
      <!-- Legacy detail  (n=72) -->
      <g style="fill: #242522" transform="translate(127.717344 164.061542) scale(0.11 -0.11)">
       <defs>
        <path id="DejaVuSans-4c" d="M 628 4666
L 1259 4666
L 1259 531
L 3531 531
L 3531 0
L 628 0
L 628 4666
z
" transform="scale(0.015625)"/>
        <path id="DejaVuSans-65" d="M 3597 1894
L 3597 1613
L 953 1613
Q 991 1019 1311 708
Q 1631 397 2203 397
Q 2534 397 2845 478
Q 3156 559 3463 722
L 3463 178
Q 3153 47 2828 -22
Q 2503 -91 2169 -91
Q 1331 -91 842 396
Q 353 884 353 1716
Q 353 2575 817 3079
Q 1281 3584 2069 3584
Q 2775 3584 3186 3129
Q 3597 2675 3597 1894
z
M 3022 2063
Q 3016 2534 2758 2815
Q 2500 3097 2075 3097
Q 1594 3097 1305 2825
Q 1016 2553 972 2059
L 3022 2063
z
" transform="scale(0.015625)"/>
        <path id="DejaVuSans-67" d="M 2906 1791
Q 2906 2416 2648 2759
Q 2391 3103 1925 3103
Q 1463 3103 1205 2759
Q 947 2416 947 1791
Q 947 1169 1205 825
Q 1463 481 1925 481
Q 2391 481 2648 825
Q 2906 1169 2906 1791
z
M 3481 434
Q 3481 -459 3084 -895
Q 2688 -1331 1869 -1331
Q 1566 -1331 1297 -1286
Q 1028 -1241 775 -1147
L 775 -588
Q 1028 -725 1275 -790
Q 1522 -856 1778 -856
Q 2344 -856 2625 -561
Q 2906 -266 2906 331
L 2906 616
Q 2728 306 2450 153
Q 2172 0 1784 0
Q 1141 0 747 490
Q 353 981 353 1791
Q 353 2603 747 3093
Q 1141 3584 1784 3584
Q 2172 3584 2450 3431
Q 2728 3278 2906 2969
L 2906 3500
L 3481 3500
L 3481 434
z
" transform="scale(0.015625)"/>
        <path id="DejaVuSans-61" d="M 2194 1759
Q 1497 1759 1228 1600
Q 959 1441 959 1056
Q 959 750 1161 570
Q 1363 391 1709 391
Q 2188 391 2477 730
Q 2766 1069 2766 1631
L 2766 1759
L 2194 1759
z
M 3341 1997
L 3341 0
L 2766 0
L 2766 531
Q 2569 213 2275 61
Q 1981 -91 1556 -91
Q 1019 -91 701 211
Q 384 513 384 1019
Q 384 1609 779 1909
Q 1175 2209 1959 2209
L 2766 2209
L 2766 2266
Q 2766 2663 2505 2880
Q 2244 3097 1772 3097
Q 1472 3097 1187 3025
Q 903 2953 641 2809
L 641 3341
Q 956 3463 1253 3523
Q 1550 3584 1831 3584
Q 2591 3584 2966 3190
Q 3341 2797 3341 1997
z
" transform="scale(0.015625)"/>
        <path id="DejaVuSans-79" d="M 2059 -325
Q 1816 -950 1584 -1140
Q 1353 -1331 966 -1331
L 506 -1331
L 506 -850
L 844 -850
Q 1081 -850 1212 -737
Q 1344 -625 1503 -206
L 1606 56
L 191 3500
L 800 3500
L 1894 763
L 2988 3500
L 3597 3500
L 2059 -325
z
" transform="scale(0.015625)"/>
        <path id="DejaVuSans-64" d="M 2906 2969
L 2906 4863
L 3481 4863
L 3481 0
L 2906 0
L 2906 525
Q 2725 213 2448 61
Q 2172 -91 1784 -91
Q 1150 -91 751 415
Q 353 922 353 1747
Q 353 2572 751 3078
Q 1150 3584 1784 3584
Q 2172 3584 2448 3432
Q 2725 3281 2906 2969
z
M 947 1747
Q 947 1113 1208 752
Q 1469 391 1925 391
Q 2381 391 2643 752
Q 2906 1113 2906 1747
Q 2906 2381 2643 2742
Q 2381 3103 1925 3103
Q 1469 3103 1208 2742
Q 947 2381 947 1747
z
" transform="scale(0.015625)"/>
        <path id="DejaVuSans-74" d="M 1172 4494
L 1172 3500
L 2356 3500
L 2356 3053
L 1172 3053
L 1172 1153
Q 1172 725 1289 603
Q 1406 481 1766 481
L 2356 481
L 2356 0
L 1766 0
Q 1100 0 847 248
Q 594 497 594 1153
L 594 3053
L 172 3053
L 172 3500
L 594 3500
L 594 4494
L 1172 4494
z
" transform="scale(0.015625)"/>
        <path id="DejaVuSans-6c" d="M 603 4863
L 1178 4863
L 1178 0
L 603 0
L 603 4863
z
" transform="scale(0.015625)"/>
        <path id="DejaVuSans-6e" d="M 3513 2113
L 3513 0
L 2938 0
L 2938 2094
Q 2938 2591 2744 2837
Q 2550 3084 2163 3084
Q 1697 3084 1428 2787
Q 1159 2491 1159 1978
L 1159 0
L 581 0
L 581 3500
L 1159 3500
L 1159 2956
Q 1366 3272 1645 3428
Q 1925 3584 2291 3584
Q 2894 3584 3203 3211
Q 3513 2838 3513 2113
z
" transform="scale(0.015625)"/>
        <path id="DejaVuSans-3d" d="M 678 2906
L 4684 2906
L 4684 2381
L 678 2381
L 678 2906
z
M 678 1631
L 4684 1631
L 4684 1100
L 678 1100
L 678 1631
z
" transform="scale(0.015625)"/>
       </defs>
       <use xlink:href="#DejaVuSans-4c"/>
       <use xlink:href="#DejaVuSans-65" transform="translate(53.962891 0)"/>
       <use xlink:href="#DejaVuSans-67" transform="translate(115.486328 0)"/>
       <use xlink:href="#DejaVuSans-61" transform="translate(178.962891 0)"/>
       <use xlink:href="#DejaVuSans-63" transform="translate(240.242188 0)"/>
       <use xlink:href="#DejaVuSans-79" transform="translate(295.222656 0)"/>
       <use xlink:href="#DejaVuSans-20" transform="translate(354.402344 0)"/>
       <use xlink:href="#DejaVuSans-64" transform="translate(386.189453 0)"/>
       <use xlink:href="#DejaVuSans-65" transform="translate(449.666016 0)"/>
       <use xlink:href="#DejaVuSans-74" transform="translate(511.189453 0)"/>
       <use xlink:href="#DejaVuSans-61" transform="translate(550.398438 0)"/>
       <use xlink:href="#DejaVuSans-69" transform="translate(611.677734 0)"/>
       <use xlink:href="#DejaVuSans-6c" transform="translate(639.460938 0)"/>
       <use xlink:href="#DejaVuSans-20" transform="translate(667.244141 0)"/>
       <use xlink:href="#DejaVuSans-20" transform="translate(699.03125 0)"/>
       <use xlink:href="#DejaVuSans-28" transform="translate(730.818359 0)"/>
       <use xlink:href="#DejaVuSans-6e" transform="translate(769.832031 0)"/>
       <use xlink:href="#DejaVuSans-3d" transform="translate(833.210938 0)"/>
       <use xlink:href="#DejaVuSans-37" transform="translate(917 0)"/>
       <use xlink:href="#DejaVuSans-32" transform="translate(980.623047 0)"/>
       <use xlink:href="#DejaVuSans-29" transform="translate(1044.246094 0)"/>
      </g>
     </g>
    </g>
    <g id="ytick_2">
     <g id="line2d_12"/>
     <g id="text_8">
      <!-- Legacy cross-session  (n=36) -->
      <g style="fill: #242522" transform="translate(85.434375 199.972014) scale(0.11 -0.11)">
       <defs>
        <path id="DejaVuSans-72" d="M 2631 2963
Q 2534 3019 2420 3045
Q 2306 3072 2169 3072
Q 1681 3072 1420 2755
Q 1159 2438 1159 1844
L 1159 0
L 581 0
L 581 3500
L 1159 3500
L 1159 2956
Q 1341 3275 1631 3429
Q 1922 3584 2338 3584
Q 2397 3584 2469 3576
Q 2541 3569 2628 3553
L 2631 2963
z
" transform="scale(0.015625)"/>
        <path id="DejaVuSans-73" d="M 2834 3397
L 2834 2853
Q 2591 2978 2328 3040
Q 2066 3103 1784 3103
Q 1356 3103 1142 2972
Q 928 2841 928 2578
Q 928 2378 1081 2264
Q 1234 2150 1697 2047
L 1894 2003
Q 2506 1872 2764 1633
Q 3022 1394 3022 966
Q 3022 478 2636 193
Q 2250 -91 1575 -91
Q 1294 -91 989 -36
Q 684 19 347 128
L 347 722
Q 666 556 975 473
Q 1284 391 1588 391
Q 1994 391 2212 530
Q 2431 669 2431 922
Q 2431 1156 2273 1281
Q 2116 1406 1581 1522
L 1381 1569
Q 847 1681 609 1914
Q 372 2147 372 2553
Q 372 3047 722 3315
Q 1072 3584 1716 3584
Q 2034 3584 2315 3537
Q 2597 3491 2834 3397
z
" transform="scale(0.015625)"/>
        <path id="DejaVuSans-33" d="M 2597 2516
Q 3050 2419 3304 2112
Q 3559 1806 3559 1356
Q 3559 666 3084 287
Q 2609 -91 1734 -91
Q 1441 -91 1130 -33
Q 819 25 488 141
L 488 750
Q 750 597 1062 519
Q 1375 441 1716 441
Q 2309 441 2620 675
Q 2931 909 2931 1356
Q 2931 1769 2642 2001
Q 2353 2234 1838 2234
L 1294 2234
L 1294 2753
L 1863 2753
Q 2328 2753 2575 2939
Q 2822 3125 2822 3475
Q 2822 3834 2567 4026
Q 2313 4219 1838 4219
Q 1578 4219 1281 4162
Q 984 4106 628 3988
L 628 4550
Q 988 4650 1302 4700
Q 1616 4750 1894 4750
Q 2613 4750 3031 4423
Q 3450 4097 3450 3541
Q 3450 3153 3228 2886
Q 3006 2619 2597 2516
z
" transform="scale(0.015625)"/>
        <path id="DejaVuSans-36" d="M 2113 2584
Q 1688 2584 1439 2293
Q 1191 2003 1191 1497
Q 1191 994 1439 701
Q 1688 409 2113 409
Q 2538 409 2786 701
Q 3034 994 3034 1497
Q 3034 2003 2786 2293
Q 2538 2584 2113 2584
z
M 3366 4563
L 3366 3988
Q 3128 4100 2886 4159
Q 2644 4219 2406 4219
Q 1781 4219 1451 3797
Q 1122 3375 1075 2522
Q 1259 2794 1537 2939
Q 1816 3084 2150 3084
Q 2853 3084 3261 2657
Q 3669 2231 3669 1497
Q 3669 778 3244 343
Q 2819 -91 2113 -91
Q 1303 -91 875 529
Q 447 1150 447 2328
Q 447 3434 972 4092
Q 1497 4750 2381 4750
Q 2619 4750 2861 4703
Q 3103 4656 3366 4563
z
" transform="scale(0.015625)"/>
       </defs>
       <use xlink:href="#DejaVuSans-4c"/>
       <use xlink:href="#DejaVuSans-65" transform="translate(53.962891 0)"/>
       <use xlink:href="#DejaVuSans-67" transform="translate(115.486328 0)"/>
       <use xlink:href="#DejaVuSans-61" transform="translate(178.962891 0)"/>
       <use xlink:href="#DejaVuSans-63" transform="translate(240.242188 0)"/>
       <use xlink:href="#DejaVuSans-79" transform="translate(295.222656 0)"/>
       <use xlink:href="#DejaVuSans-20" transform="translate(354.402344 0)"/>
       <use xlink:href="#DejaVuSans-63" transform="translate(386.189453 0)"/>
       <use xlink:href="#DejaVuSans-72" transform="translate(441.169922 0)"/>
       <use xlink:href="#DejaVuSans-6f" transform="translate(480.033203 0)"/>
       <use xlink:href="#DejaVuSans-73" transform="translate(541.214844 0)"/>
       <use xlink:href="#DejaVuSans-73" transform="translate(593.314453 0)"/>
       <use xlink:href="#DejaVuSans-2d" transform="translate(645.414062 0)"/>
       <use xlink:href="#DejaVuSans-73" transform="translate(681.498047 0)"/>
       <use xlink:href="#DejaVuSans-65" transform="translate(733.597656 0)"/>
       <use xlink:href="#DejaVuSans-73" transform="translate(795.121094 0)"/>
       <use xlink:href="#DejaVuSans-73" transform="translate(847.220703 0)"/>
       <use xlink:href="#DejaVuSans-69" transform="translate(899.320312 0)"/>
       <use xlink:href="#DejaVuSans-6f" transform="translate(927.103516 0)"/>
       <use xlink:href="#DejaVuSans-6e" transform="translate(988.285156 0)"/>
       <use xlink:href="#DejaVuSans-20" transform="translate(1051.664062 0)"/>
       <use xlink:href="#DejaVuSans-20" transform="translate(1083.451172 0)"/>
       <use xlink:href="#DejaVuSans-28" transform="translate(1115.238281 0)"/>
       <use xlink:href="#DejaVuSans-6e" transform="translate(1154.251953 0)"/>
       <use xlink:href="#DejaVuSans-3d" transform="translate(1217.630859 0)"/>
       <use xlink:href="#DejaVuSans-33" transform="translate(1301.419922 0)"/>
       <use xlink:href="#DejaVuSans-36" transform="translate(1365.042969 0)"/>
       <use xlink:href="#DejaVuSans-29" transform="translate(1428.666016 0)"/>
      </g>
     </g>
    </g>
    <g id="ytick_3">
     <g id="line2d_13"/>
     <g id="text_9">
      <!-- Task detail  (n=36) -->
      <g style="fill: #242522" transform="translate(142.960938 235.882487) scale(0.11 -0.11)">
       <defs>
        <path id="DejaVuSans-6b" d="M 581 4863
L 1159 4863
L 1159 1991
L 2875 3500
L 3609 3500
L 1753 1863
L 3688 0
L 2938 0
L 1159 1709
L 1159 0
L 581 0
L 581 4863
z
" transform="scale(0.015625)"/>
       </defs>
       <use xlink:href="#DejaVuSans-54"/>
       <use xlink:href="#DejaVuSans-61" transform="translate(44.583984 0)"/>
       <use xlink:href="#DejaVuSans-73" transform="translate(105.863281 0)"/>
       <use xlink:href="#DejaVuSans-6b" transform="translate(157.962891 0)"/>
       <use xlink:href="#DejaVuSans-20" transform="translate(215.873047 0)"/>
       <use xlink:href="#DejaVuSans-64" transform="translate(247.660156 0)"/>
       <use xlink:href="#DejaVuSans-65" transform="translate(311.136719 0)"/>
       <use xlink:href="#DejaVuSans-74" transform="translate(372.660156 0)"/>
       <use xlink:href="#DejaVuSans-61" transform="translate(411.869141 0)"/>
       <use xlink:href="#DejaVuSans-69" transform="translate(473.148438 0)"/>
       <use xlink:href="#DejaVuSans-6c" transform="translate(500.931641 0)"/>
       <use xlink:href="#DejaVuSans-20" transform="translate(528.714844 0)"/>
       <use xlink:href="#DejaVuSans-20" transform="translate(560.501953 0)"/>
       <use xlink:href="#DejaVuSans-28" transform="translate(592.289062 0)"/>
       <use xlink:href="#DejaVuSans-6e" transform="translate(631.302734 0)"/>
       <use xlink:href="#DejaVuSans-3d" transform="translate(694.681641 0)"/>
       <use xlink:href="#DejaVuSans-33" transform="translate(778.470703 0)"/>
       <use xlink:href="#DejaVuSans-36" transform="translate(842.09375 0)"/>
       <use xlink:href="#DejaVuSans-29" transform="translate(905.716797 0)"/>
      </g>
     </g>
    </g>
    <g id="ytick_4">
     <g id="line2d_14"/>
     <g id="text_10">
      <!-- Cross-session  (n=19) -->
      <g style="fill: #242522" transform="translate(126.285625 271.792959) scale(0.11 -0.11)">
       <defs>
        <path id="DejaVuSans-43" d="M 4122 4306
L 4122 3641
Q 3803 3938 3442 4084
Q 3081 4231 2675 4231
Q 1875 4231 1450 3742
Q 1025 3253 1025 2328
Q 1025 1406 1450 917
Q 1875 428 2675 428
Q 3081 428 3442 575
Q 3803 722 4122 1019
L 4122 359
Q 3791 134 3420 21
Q 3050 -91 2638 -91
Q 1578 -91 968 557
Q 359 1206 359 2328
Q 359 3453 968 4101
Q 1578 4750 2638 4750
Q 3056 4750 3426 4639
Q 3797 4528 4122 4306
z
" transform="scale(0.015625)"/>
        <path id="DejaVuSans-39" d="M 703 97
L 703 672
Q 941 559 1184 500
Q 1428 441 1663 441
Q 2288 441 2617 861
Q 2947 1281 2994 2138
Q 2813 1869 2534 1725
Q 2256 1581 1919 1581
Q 1219 1581 811 2004
Q 403 2428 403 3163
Q 403 3881 828 4315
Q 1253 4750 1959 4750
Q 2769 4750 3195 4129
Q 3622 3509 3622 2328
Q 3622 1225 3098 567
Q 2575 -91 1691 -91
Q 1453 -91 1209 -44
Q 966 3 703 97
z
M 1959 2075
Q 2384 2075 2632 2365
Q 2881 2656 2881 3163
Q 2881 3666 2632 3958
Q 2384 4250 1959 4250
Q 1534 4250 1286 3958
Q 1038 3666 1038 3163
Q 1038 2656 1286 2365
Q 1534 2075 1959 2075
z
" transform="scale(0.015625)"/>
       </defs>
       <use xlink:href="#DejaVuSans-43"/>
       <use xlink:href="#DejaVuSans-72" transform="translate(69.824219 0)"/>
       <use xlink:href="#DejaVuSans-6f" transform="translate(108.6875 0)"/>
       <use xlink:href="#DejaVuSans-73" transform="translate(169.869141 0)"/>
       <use xlink:href="#DejaVuSans-73" transform="translate(221.96875 0)"/>
       <use xlink:href="#DejaVuSans-2d" transform="translate(274.068359 0)"/>
       <use xlink:href="#DejaVuSans-73" transform="translate(310.152344 0)"/>
       <use xlink:href="#DejaVuSans-65" transform="translate(362.251953 0)"/>
       <use xlink:href="#DejaVuSans-73" transform="translate(423.775391 0)"/>
       <use xlink:href="#DejaVuSans-73" transform="translate(475.875 0)"/>
       <use xlink:href="#DejaVuSans-69" transform="translate(527.974609 0)"/>
       <use xlink:href="#DejaVuSans-6f" transform="translate(555.757812 0)"/>
       <use xlink:href="#DejaVuSans-6e" transform="translate(616.939453 0)"/>
       <use xlink:href="#DejaVuSans-20" transform="translate(680.318359 0)"/>
       <use xlink:href="#DejaVuSans-20" transform="translate(712.105469 0)"/>
       <use xlink:href="#DejaVuSans-28" transform="translate(743.892578 0)"/>
       <use xlink:href="#DejaVuSans-6e" transform="translate(782.90625 0)"/>
       <use xlink:href="#DejaVuSans-3d" transform="translate(846.285156 0)"/>
       <use xlink:href="#DejaVuSans-31" transform="translate(930.074219 0)"/>
       <use xlink:href="#DejaVuSans-39" transform="translate(993.697266 0)"/>
       <use xlink:href="#DejaVuSans-29" transform="translate(1057.320312 0)"/>
      </g>
     </g>
    </g>
    <g id="ytick_5">
     <g id="line2d_15"/>
     <g id="text_11">
      <!-- Person  (n=17) -->
      <g style="fill: #242522" transform="translate(164.161719 307.703432) scale(0.11 -0.11)">
       <defs>
        <path id="DejaVuSans-50" d="M 1259 4147
L 1259 2394
L 2053 2394
Q 2494 2394 2734 2622
Q 2975 2850 2975 3272
Q 2975 3691 2734 3919
Q 2494 4147 2053 4147
L 1259 4147
z
M 628 4666
L 2053 4666
Q 2838 4666 3239 4311
Q 3641 3956 3641 3272
Q 3641 2581 3239 2228
Q 2838 1875 2053 1875
L 1259 1875
L 1259 0
L 628 0
L 628 4666
z
" transform="scale(0.015625)"/>
       </defs>
       <use xlink:href="#DejaVuSans-50"/>
       <use xlink:href="#DejaVuSans-65" transform="translate(56.677734 0)"/>
       <use xlink:href="#DejaVuSans-72" transform="translate(118.201172 0)"/>
       <use xlink:href="#DejaVuSans-73" transform="translate(159.314453 0)"/>
       <use xlink:href="#DejaVuSans-6f" transform="translate(211.414062 0)"/>
       <use xlink:href="#DejaVuSans-6e" transform="translate(272.595703 0)"/>
       <use xlink:href="#DejaVuSans-20" transform="translate(335.974609 0)"/>
       <use xlink:href="#DejaVuSans-20" transform="translate(367.761719 0)"/>
       <use xlink:href="#DejaVuSans-28" transform="translate(399.548828 0)"/>
       <use xlink:href="#DejaVuSans-6e" transform="translate(438.5625 0)"/>
       <use xlink:href="#DejaVuSans-3d" transform="translate(501.941406 0)"/>
       <use xlink:href="#DejaVuSans-31" transform="translate(585.730469 0)"/>
       <use xlink:href="#DejaVuSans-37" transform="translate(649.353516 0)"/>
       <use xlink:href="#DejaVuSans-29" transform="translate(712.976562 0)"/>
      </g>
     </g>
    </g>
    <g id="ytick_6">
     <g id="line2d_16"/>
     <g id="text_12">
      <!-- Confusable matters  (n=16) -->
      <g style="fill: #242522" transform="translate(93.015781 343.613904) scale(0.11 -0.11)">
       <defs>
        <path id="DejaVuSans-66" d="M 2375 4863
L 2375 4384
L 1825 4384
Q 1516 4384 1395 4259
Q 1275 4134 1275 3809
L 1275 3500
L 2222 3500
L 2222 3053
L 1275 3053
L 1275 0
L 697 0
L 697 3053
L 147 3053
L 147 3500
L 697 3500
L 697 3744
Q 697 4328 969 4595
Q 1241 4863 1831 4863
L 2375 4863
z
" transform="scale(0.015625)"/>
        <path id="DejaVuSans-75" d="M 544 1381
L 544 3500
L 1119 3500
L 1119 1403
Q 1119 906 1312 657
Q 1506 409 1894 409
Q 2359 409 2629 706
Q 2900 1003 2900 1516
L 2900 3500
L 3475 3500
L 3475 0
L 2900 0
L 2900 538
Q 2691 219 2414 64
Q 2138 -91 1772 -91
Q 1169 -91 856 284
Q 544 659 544 1381
z
M 1991 3584
L 1991 3584
z
" transform="scale(0.015625)"/>
        <path id="DejaVuSans-62" d="M 3116 1747
Q 3116 2381 2855 2742
Q 2594 3103 2138 3103
Q 1681 3103 1420 2742
Q 1159 2381 1159 1747
Q 1159 1113 1420 752
Q 1681 391 2138 391
Q 2594 391 2855 752
Q 3116 1113 3116 1747
z
M 1159 2969
Q 1341 3281 1617 3432
Q 1894 3584 2278 3584
Q 2916 3584 3314 3078
Q 3713 2572 3713 1747
Q 3713 922 3314 415
Q 2916 -91 2278 -91
Q 1894 -91 1617 61
Q 1341 213 1159 525
L 1159 0
L 581 0
L 581 4863
L 1159 4863
L 1159 2969
z
" transform="scale(0.015625)"/>
        <path id="DejaVuSans-6d" d="M 3328 2828
Q 3544 3216 3844 3400
Q 4144 3584 4550 3584
Q 5097 3584 5394 3201
Q 5691 2819 5691 2113
L 5691 0
L 5113 0
L 5113 2094
Q 5113 2597 4934 2840
Q 4756 3084 4391 3084
Q 3944 3084 3684 2787
Q 3425 2491 3425 1978
L 3425 0
L 2847 0
L 2847 2094
Q 2847 2600 2669 2842
Q 2491 3084 2119 3084
Q 1678 3084 1418 2786
Q 1159 2488 1159 1978
L 1159 0
L 581 0
L 581 3500
L 1159 3500
L 1159 2956
Q 1356 3278 1631 3431
Q 1906 3584 2284 3584
Q 2666 3584 2933 3390
Q 3200 3197 3328 2828
z
" transform="scale(0.015625)"/>
       </defs>
       <use xlink:href="#DejaVuSans-43"/>
       <use xlink:href="#DejaVuSans-6f" transform="translate(69.824219 0)"/>
       <use xlink:href="#DejaVuSans-6e" transform="translate(131.005859 0)"/>
       <use xlink:href="#DejaVuSans-66" transform="translate(194.384766 0)"/>
       <use xlink:href="#DejaVuSans-75" transform="translate(229.589844 0)"/>
       <use xlink:href="#DejaVuSans-73" transform="translate(292.96875 0)"/>
       <use xlink:href="#DejaVuSans-61" transform="translate(345.068359 0)"/>
       <use xlink:href="#DejaVuSans-62" transform="translate(406.347656 0)"/>
       <use xlink:href="#DejaVuSans-6c" transform="translate(469.824219 0)"/>
       <use xlink:href="#DejaVuSans-65" transform="translate(497.607422 0)"/>
       <use xlink:href="#DejaVuSans-20" transform="translate(559.130859 0)"/>
       <use xlink:href="#DejaVuSans-6d" transform="translate(590.917969 0)"/>
       <use xlink:href="#DejaVuSans-61" transform="translate(688.330078 0)"/>
       <use xlink:href="#DejaVuSans-74" transform="translate(749.609375 0)"/>
       <use xlink:href="#DejaVuSans-74" transform="translate(788.818359 0)"/>
       <use xlink:href="#DejaVuSans-65" transform="translate(828.027344 0)"/>
       <use xlink:href="#DejaVuSans-72" transform="translate(889.550781 0)"/>
       <use xlink:href="#DejaVuSans-73" transform="translate(930.664062 0)"/>
       <use xlink:href="#DejaVuSans-20" transform="translate(982.763672 0)"/>
       <use xlink:href="#DejaVuSans-20" transform="translate(1014.550781 0)"/>
       <use xlink:href="#DejaVuSans-28" transform="translate(1046.337891 0)"/>
       <use xlink:href="#DejaVuSans-6e" transform="translate(1085.351562 0)"/>
       <use xlink:href="#DejaVuSans-3d" transform="translate(1148.730469 0)"/>
       <use xlink:href="#DejaVuSans-31" transform="translate(1232.519531 0)"/>
       <use xlink:href="#DejaVuSans-36" transform="translate(1296.142578 0)"/>
       <use xlink:href="#DejaVuSans-29" transform="translate(1359.765625 0)"/>
      </g>
     </g>
    </g>
    <g id="ytick_7">
     <g id="line2d_17"/>
     <g id="text_13">
      <!-- Time  (n=14) -->
      <g style="fill: #242522" transform="translate(174.204375 379.524377) scale(0.11 -0.11)">
       <defs>
        <path id="DejaVuSans-34" d="M 2419 4116
L 825 1625
L 2419 1625
L 2419 4116
z
M 2253 4666
L 3047 4666
L 3047 1625
L 3713 1625
L 3713 1100
L 3047 1100
L 3047 0
L 2419 0
L 2419 1100
L 313 1100
L 313 1709
L 2253 4666
z
" transform="scale(0.015625)"/>
       </defs>
       <use xlink:href="#DejaVuSans-54"/>
       <use xlink:href="#DejaVuSans-69" transform="translate(57.958984 0)"/>
       <use xlink:href="#DejaVuSans-6d" transform="translate(85.742188 0)"/>
       <use xlink:href="#DejaVuSans-65" transform="translate(183.154297 0)"/>
       <use xlink:href="#DejaVuSans-20" transform="translate(244.677734 0)"/>
       <use xlink:href="#DejaVuSans-20" transform="translate(276.464844 0)"/>
       <use xlink:href="#DejaVuSans-28" transform="translate(308.251953 0)"/>
       <use xlink:href="#DejaVuSans-6e" transform="translate(347.265625 0)"/>
       <use xlink:href="#DejaVuSans-3d" transform="translate(410.644531 0)"/>
       <use xlink:href="#DejaVuSans-31" transform="translate(494.433594 0)"/>
       <use xlink:href="#DejaVuSans-34" transform="translate(558.056641 0)"/>
       <use xlink:href="#DejaVuSans-29" transform="translate(621.679688 0)"/>
      </g>
     </g>
    </g>
    <g id="ytick_8">
     <g id="line2d_18"/>
     <g id="text_14">
      <!-- Fallback / scope  (n=7) -->
      <g style="fill: #242522" transform="translate(120.840625 415.434849) scale(0.11 -0.11)">
       <defs>
        <path id="DejaVuSans-46" d="M 628 4666
L 3309 4666
L 3309 4134
L 1259 4134
L 1259 2759
L 3109 2759
L 3109 2228
L 1259 2228
L 1259 0
L 628 0
L 628 4666
z
" transform="scale(0.015625)"/>
        <path id="DejaVuSans-2f" d="M 1625 4666
L 2156 4666
L 531 -594
L 0 -594
L 1625 4666
z
" transform="scale(0.015625)"/>
       </defs>
       <use xlink:href="#DejaVuSans-46"/>
       <use xlink:href="#DejaVuSans-61" transform="translate(48.394531 0)"/>
       <use xlink:href="#DejaVuSans-6c" transform="translate(109.673828 0)"/>
       <use xlink:href="#DejaVuSans-6c" transform="translate(137.457031 0)"/>
       <use xlink:href="#DejaVuSans-62" transform="translate(165.240234 0)"/>
       <use xlink:href="#DejaVuSans-61" transform="translate(228.716797 0)"/>
       <use xlink:href="#DejaVuSans-63" transform="translate(289.996094 0)"/>
       <use xlink:href="#DejaVuSans-6b" transform="translate(344.976562 0)"/>
       <use xlink:href="#DejaVuSans-20" transform="translate(402.886719 0)"/>
       <use xlink:href="#DejaVuSans-2f" transform="translate(434.673828 0)"/>
       <use xlink:href="#DejaVuSans-20" transform="translate(468.365234 0)"/>
       <use xlink:href="#DejaVuSans-73" transform="translate(500.152344 0)"/>
       <use xlink:href="#DejaVuSans-63" transform="translate(552.251953 0)"/>
       <use xlink:href="#DejaVuSans-6f" transform="translate(607.232422 0)"/>
       <use xlink:href="#DejaVuSans-70" transform="translate(668.414062 0)"/>
       <use xlink:href="#DejaVuSans-65" transform="translate(731.890625 0)"/>
       <use xlink:href="#DejaVuSans-20" transform="translate(793.414062 0)"/>
       <use xlink:href="#DejaVuSans-20" transform="translate(825.201172 0)"/>
       <use xlink:href="#DejaVuSans-28" transform="translate(856.988281 0)"/>
       <use xlink:href="#DejaVuSans-6e" transform="translate(896.001953 0)"/>
       <use xlink:href="#DejaVuSans-3d" transform="translate(959.380859 0)"/>
       <use xlink:href="#DejaVuSans-37" transform="translate(1043.169922 0)"/>
       <use xlink:href="#DejaVuSans-29" transform="translate(1106.792969 0)"/>
      </g>
     </g>
    </g>
    <g id="ytick_9">
     <g id="line2d_19"/>
     <g id="text_15">
      <!-- Legacy boundary  (n=6) -->
      <g style="fill: #242522" transform="translate(113.219687 451.345322) scale(0.11 -0.11)">
       <use xlink:href="#DejaVuSans-4c"/>
       <use xlink:href="#DejaVuSans-65" transform="translate(53.962891 0)"/>
       <use xlink:href="#DejaVuSans-67" transform="translate(115.486328 0)"/>
       <use xlink:href="#DejaVuSans-61" transform="translate(178.962891 0)"/>
       <use xlink:href="#DejaVuSans-63" transform="translate(240.242188 0)"/>
       <use xlink:href="#DejaVuSans-79" transform="translate(295.222656 0)"/>
       <use xlink:href="#DejaVuSans-20" transform="translate(354.402344 0)"/>
       <use xlink:href="#DejaVuSans-62" transform="translate(386.189453 0)"/>
       <use xlink:href="#DejaVuSans-6f" transform="translate(449.666016 0)"/>
       <use xlink:href="#DejaVuSans-75" transform="translate(510.847656 0)"/>
       <use xlink:href="#DejaVuSans-6e" transform="translate(574.226562 0)"/>
       <use xlink:href="#DejaVuSans-64" transform="translate(637.605469 0)"/>
       <use xlink:href="#DejaVuSans-61" transform="translate(701.082031 0)"/>
       <use xlink:href="#DejaVuSans-72" transform="translate(762.361328 0)"/>
       <use xlink:href="#DejaVuSans-79" transform="translate(803.474609 0)"/>
       <use xlink:href="#DejaVuSans-20" transform="translate(862.654297 0)"/>
       <use xlink:href="#DejaVuSans-20" transform="translate(894.441406 0)"/>
       <use xlink:href="#DejaVuSans-28" transform="translate(926.228516 0)"/>
       <use xlink:href="#DejaVuSans-6e" transform="translate(965.242188 0)"/>
       <use xlink:href="#DejaVuSans-3d" transform="translate(1028.621094 0)"/>
       <use xlink:href="#DejaVuSans-36" transform="translate(1112.410156 0)"/>
       <use xlink:href="#DejaVuSans-29" transform="translate(1176.033203 0)"/>
      </g>
     </g>
    </g>
    <g id="ytick_10">
     <g id="line2d_20"/>
     <g id="text_16">
      <!-- Late import  (n=5) -->
      <g style="fill: #242522" transform="translate(144.351406 487.255794) scale(0.11 -0.11)">
       <use xlink:href="#DejaVuSans-4c"/>
       <use xlink:href="#DejaVuSans-61" transform="translate(55.712891 0)"/>
       <use xlink:href="#DejaVuSans-74" transform="translate(116.992188 0)"/>
       <use xlink:href="#DejaVuSans-65" transform="translate(156.201172 0)"/>
       <use xlink:href="#DejaVuSans-20" transform="translate(217.724609 0)"/>
       <use xlink:href="#DejaVuSans-69" transform="translate(249.511719 0)"/>
       <use xlink:href="#DejaVuSans-6d" transform="translate(277.294922 0)"/>
       <use xlink:href="#DejaVuSans-70" transform="translate(374.707031 0)"/>
       <use xlink:href="#DejaVuSans-6f" transform="translate(438.183594 0)"/>
       <use xlink:href="#DejaVuSans-72" transform="translate(499.365234 0)"/>
       <use xlink:href="#DejaVuSans-74" transform="translate(540.478516 0)"/>
       <use xlink:href="#DejaVuSans-20" transform="translate(579.6875 0)"/>
       <use xlink:href="#DejaVuSans-20" transform="translate(611.474609 0)"/>
       <use xlink:href="#DejaVuSans-28" transform="translate(643.261719 0)"/>
       <use xlink:href="#DejaVuSans-6e" transform="translate(682.275391 0)"/>
       <use xlink:href="#DejaVuSans-3d" transform="translate(745.654297 0)"/>
       <use xlink:href="#DejaVuSans-35" transform="translate(829.443359 0)"/>
       <use xlink:href="#DejaVuSans-29" transform="translate(893.066406 0)"/>
      </g>
     </g>
    </g>
    <g id="ytick_11">
     <g id="line2d_21"/>
     <g id="text_17">
      <!-- Version  (n=4) -->
      <g style="fill: #242522" transform="translate(167.66625 523.166267) scale(0.11 -0.11)">
       <defs>
        <path id="DejaVuSans-56" d="M 1831 0
L 50 4666
L 709 4666
L 2188 738
L 3669 4666
L 4325 4666
L 2547 0
L 1831 0
z
" transform="scale(0.015625)"/>
       </defs>
       <use xlink:href="#DejaVuSans-56"/>
       <use xlink:href="#DejaVuSans-65" transform="translate(60.658203 0)"/>
       <use xlink:href="#DejaVuSans-72" transform="translate(122.181641 0)"/>
       <use xlink:href="#DejaVuSans-73" transform="translate(163.294922 0)"/>
       <use xlink:href="#DejaVuSans-69" transform="translate(215.394531 0)"/>
       <use xlink:href="#DejaVuSans-6f" transform="translate(243.177734 0)"/>
       <use xlink:href="#DejaVuSans-6e" transform="translate(304.359375 0)"/>
       <use xlink:href="#DejaVuSans-20" transform="translate(367.738281 0)"/>
       <use xlink:href="#DejaVuSans-20" transform="translate(399.525391 0)"/>
       <use xlink:href="#DejaVuSans-28" transform="translate(431.3125 0)"/>
       <use xlink:href="#DejaVuSans-6e" transform="translate(470.326172 0)"/>
       <use xlink:href="#DejaVuSans-3d" transform="translate(533.705078 0)"/>
       <use xlink:href="#DejaVuSans-34" transform="translate(617.494141 0)"/>
       <use xlink:href="#DejaVuSans-29" transform="translate(681.117188 0)"/>
      </g>
     </g>
    </g>
    <g id="ytick_12">
     <g id="line2d_22"/>
     <g id="text_18">
      <!-- Resource move  (n=2) -->
      <g style="fill: #242522" transform="translate(123.456562 559.076739) scale(0.11 -0.11)">
       <defs>
        <path id="DejaVuSans-52" d="M 2841 2188
Q 3044 2119 3236 1894
Q 3428 1669 3622 1275
L 4263 0
L 3584 0
L 2988 1197
Q 2756 1666 2539 1819
Q 2322 1972 1947 1972
L 1259 1972
L 1259 0
L 628 0
L 628 4666
L 2053 4666
Q 2853 4666 3247 4331
Q 3641 3997 3641 3322
Q 3641 2881 3436 2590
Q 3231 2300 2841 2188
z
M 1259 4147
L 1259 2491
L 2053 2491
Q 2509 2491 2742 2702
Q 2975 2913 2975 3322
Q 2975 3731 2742 3939
Q 2509 4147 2053 4147
L 1259 4147
z
" transform="scale(0.015625)"/>
        <path id="DejaVuSans-76" d="M 191 3500
L 800 3500
L 1894 563
L 2988 3500
L 3597 3500
L 2284 0
L 1503 0
L 191 3500
z
" transform="scale(0.015625)"/>
       </defs>
       <use xlink:href="#DejaVuSans-52"/>
       <use xlink:href="#DejaVuSans-65" transform="translate(64.982422 0)"/>
       <use xlink:href="#DejaVuSans-73" transform="translate(126.505859 0)"/>
       <use xlink:href="#DejaVuSans-6f" transform="translate(178.605469 0)"/>
       <use xlink:href="#DejaVuSans-75" transform="translate(239.787109 0)"/>
       <use xlink:href="#DejaVuSans-72" transform="translate(303.166016 0)"/>
       <use xlink:href="#DejaVuSans-63" transform="translate(342.029297 0)"/>
       <use xlink:href="#DejaVuSans-65" transform="translate(397.009766 0)"/>
       <use xlink:href="#DejaVuSans-20" transform="translate(458.533203 0)"/>
       <use xlink:href="#DejaVuSans-6d" transform="translate(490.320312 0)"/>
       <use xlink:href="#DejaVuSans-6f" transform="translate(587.732422 0)"/>
       <use xlink:href="#DejaVuSans-76" transform="translate(648.914062 0)"/>
       <use xlink:href="#DejaVuSans-65" transform="translate(708.09375 0)"/>
       <use xlink:href="#DejaVuSans-20" transform="translate(769.617188 0)"/>
       <use xlink:href="#DejaVuSans-20" transform="translate(801.404297 0)"/>
       <use xlink:href="#DejaVuSans-28" transform="translate(833.191406 0)"/>
       <use xlink:href="#DejaVuSans-6e" transform="translate(872.205078 0)"/>
       <use xlink:href="#DejaVuSans-3d" transform="translate(935.583984 0)"/>
       <use xlink:href="#DejaVuSans-32" transform="translate(1019.373047 0)"/>
       <use xlink:href="#DejaVuSans-29" transform="translate(1082.996094 0)"/>
      </g>
     </g>
    </g>
   </g>
   <g id="patch_3">
    <path d="M 254.88 584.82
L 807.84 584.82
" style="fill: none; stroke: #d9d6ce; stroke-width: 0.8; stroke-linejoin: miter; stroke-linecap: square"/>
   </g>
   <g id="patch_4">
    <path d="M 254.88 150.635455
L 460.594286 150.635455
L 460.594286 159.074416
L 254.88 159.074416
z
" clip-path="url(#pe9e6043d12)" style="fill: #85938c"/>
   </g>
   <g id="patch_5">
    <path d="M 254.88 186.545927
L 542.88 186.545927
L 542.88 194.984888
L 254.88 194.984888
z
" clip-path="url(#pe9e6043d12)" style="fill: #85938c"/>
   </g>
   <g id="patch_6">
    <path d="M 254.88 222.4564
L 652.594286 222.4564
L 652.594286 230.895361
L 254.88 230.895361
z
" clip-path="url(#pe9e6043d12)" style="fill: #85938c"/>
   </g>
   <g id="patch_7">
    <path d="M 254.88 258.366872
L 696.624361 258.366872
L 696.624361 266.805833
L 254.88 266.805833
z
" clip-path="url(#pe9e6043d12)" style="fill: #85938c"/>
   </g>
   <g id="patch_8">
    <path d="M 254.88 294.277345
L 719.552269 294.277345
L 719.552269 302.716306
L 254.88 302.716306
z
" clip-path="url(#pe9e6043d12)" style="fill: #85938c"/>
   </g>
   <g id="patch_9">
    <path d="M 254.88 330.187817
L 625.165714 330.187817
L 625.165714 338.626778
L 254.88 338.626778
z
" clip-path="url(#pe9e6043d12)" style="fill: #85938c"/>
   </g>
   <g id="patch_10">
    <path d="M 254.88 366.09829
L 642.798367 366.09829
L 642.798367 374.537251
L 254.88 374.537251
z
" clip-path="url(#pe9e6043d12)" style="fill: #85938c"/>
   </g>
   <g id="patch_11">
    <path d="M 254.88 402.008762
L 537.002449 402.008762
L 537.002449 410.447723
L 254.88 410.447723
z
" clip-path="url(#pe9e6043d12)" style="fill: #85938c"/>
   </g>
   <g id="patch_12">
    <path d="M 254.88 437.919235
L 584.022857 437.919235
L 584.022857 446.358196
L 254.88 446.358196
z
" clip-path="url(#pe9e6043d12)" style="fill: #85938c"/>
   </g>
   <g id="patch_13">
    <path d="M 254.88 473.829707
L 649.851429 473.829707
L 649.851429 482.268668
L 254.88 482.268668
z
" clip-path="url(#pe9e6043d12)" style="fill: #85938c"/>
   </g>
   <g id="patch_14">
    <path d="M 254.88 509.74018
L 625.165714 509.74018
L 625.165714 518.179141
L 254.88 518.179141
z
" clip-path="url(#pe9e6043d12)" style="fill: #85938c"/>
   </g>
   <g id="patch_15">
    <path d="M 254.88 545.650652
L 748.594286 545.650652
L 748.594286 554.089613
L 254.88 554.089613
z
" clip-path="url(#pe9e6043d12)" style="fill: #85938c"/>
   </g>
   <g id="text_19">
    <!-- 41.7% -->
    <g transform="translate(465.531429 157.338373) scale(0.09 -0.09)">
     <defs>
      <path id="DejaVuSans-2e" d="M 684 794
L 1344 794
L 1344 0
L 684 0
L 684 794
z
" transform="scale(0.015625)"/>
     </defs>
     <use xlink:href="#DejaVuSans-34"/>
     <use xlink:href="#DejaVuSans-31" transform="translate(63.623047 0)"/>
     <use xlink:href="#DejaVuSans-2e" transform="translate(127.246094 0)"/>
     <use xlink:href="#DejaVuSans-37" transform="translate(159.033203 0)"/>
     <use xlink:href="#DejaVuSans-25" transform="translate(222.65625 0)"/>
    </g>
   </g>
   <g id="text_20">
    <!-- 58.3% -->
    <g transform="translate(547.817143 193.248845) scale(0.09 -0.09)">
     <defs>
      <path id="DejaVuSans-38" d="M 2034 2216
Q 1584 2216 1326 1975
Q 1069 1734 1069 1313
Q 1069 891 1326 650
Q 1584 409 2034 409
Q 2484 409 2743 651
Q 3003 894 3003 1313
Q 3003 1734 2745 1975
Q 2488 2216 2034 2216
z
M 1403 2484
Q 997 2584 770 2862
Q 544 3141 544 3541
Q 544 4100 942 4425
Q 1341 4750 2034 4750
Q 2731 4750 3128 4425
Q 3525 4100 3525 3541
Q 3525 3141 3298 2862
Q 3072 2584 2669 2484
Q 3125 2378 3379 2068
Q 3634 1759 3634 1313
Q 3634 634 3220 271
Q 2806 -91 2034 -91
Q 1263 -91 848 271
Q 434 634 434 1313
Q 434 1759 690 2068
Q 947 2378 1403 2484
z
M 1172 3481
Q 1172 3119 1398 2916
Q 1625 2713 2034 2713
Q 2441 2713 2670 2916
Q 2900 3119 2900 3481
Q 2900 3844 2670 4047
Q 2441 4250 2034 4250
Q 1625 4250 1398 4047
Q 1172 3844 1172 3481
z
" transform="scale(0.015625)"/>
     </defs>
     <use xlink:href="#DejaVuSans-35"/>
     <use xlink:href="#DejaVuSans-38" transform="translate(63.623047 0)"/>
     <use xlink:href="#DejaVuSans-2e" transform="translate(127.246094 0)"/>
     <use xlink:href="#DejaVuSans-33" transform="translate(159.033203 0)"/>
     <use xlink:href="#DejaVuSans-25" transform="translate(222.65625 0)"/>
    </g>
   </g>
   <g id="text_21">
    <!-- 80.6% -->
    <g transform="translate(657.531429 229.159318) scale(0.09 -0.09)">
     <use xlink:href="#DejaVuSans-38"/>
     <use xlink:href="#DejaVuSans-30" transform="translate(63.623047 0)"/>
     <use xlink:href="#DejaVuSans-2e" transform="translate(127.246094 0)"/>
     <use xlink:href="#DejaVuSans-36" transform="translate(159.033203 0)"/>
     <use xlink:href="#DejaVuSans-25" transform="translate(222.65625 0)"/>
    </g>
   </g>
   <g id="text_22">
    <!-- 89.5% -->
    <g transform="translate(701.561504 265.06979) scale(0.09 -0.09)">
     <use xlink:href="#DejaVuSans-38"/>
     <use xlink:href="#DejaVuSans-39" transform="translate(63.623047 0)"/>
     <use xlink:href="#DejaVuSans-2e" transform="translate(127.246094 0)"/>
     <use xlink:href="#DejaVuSans-35" transform="translate(159.033203 0)"/>
     <use xlink:href="#DejaVuSans-25" transform="translate(222.65625 0)"/>
    </g>
   </g>
   <g id="text_23">
    <!-- 94.1% -->
    <g transform="translate(724.489412 300.980263) scale(0.09 -0.09)">
     <use xlink:href="#DejaVuSans-39"/>
     <use xlink:href="#DejaVuSans-34" transform="translate(63.623047 0)"/>
     <use xlink:href="#DejaVuSans-2e" transform="translate(127.246094 0)"/>
     <use xlink:href="#DejaVuSans-31" transform="translate(159.033203 0)"/>
     <use xlink:href="#DejaVuSans-25" transform="translate(222.65625 0)"/>
    </g>
   </g>
   <g id="text_24">
    <!-- 75.0% -->
    <g transform="translate(630.102857 336.890735) scale(0.09 -0.09)">
     <use xlink:href="#DejaVuSans-37"/>
     <use xlink:href="#DejaVuSans-35" transform="translate(63.623047 0)"/>
     <use xlink:href="#DejaVuSans-2e" transform="translate(127.246094 0)"/>
     <use xlink:href="#DejaVuSans-30" transform="translate(159.033203 0)"/>
     <use xlink:href="#DejaVuSans-25" transform="translate(222.65625 0)"/>
    </g>
   </g>
   <g id="text_25">
    <!-- 78.6% -->
    <g transform="translate(647.73551 372.801208) scale(0.09 -0.09)">
     <use xlink:href="#DejaVuSans-37"/>
     <use xlink:href="#DejaVuSans-38" transform="translate(63.623047 0)"/>
     <use xlink:href="#DejaVuSans-2e" transform="translate(127.246094 0)"/>
     <use xlink:href="#DejaVuSans-36" transform="translate(159.033203 0)"/>
     <use xlink:href="#DejaVuSans-25" transform="translate(222.65625 0)"/>
    </g>
   </g>
   <g id="text_26">
    <!-- 57.1% -->
    <g transform="translate(541.939592 408.71168) scale(0.09 -0.09)">
     <use xlink:href="#DejaVuSans-35"/>
     <use xlink:href="#DejaVuSans-37" transform="translate(63.623047 0)"/>
     <use xlink:href="#DejaVuSans-2e" transform="translate(127.246094 0)"/>
     <use xlink:href="#DejaVuSans-31" transform="translate(159.033203 0)"/>
     <use xlink:href="#DejaVuSans-25" transform="translate(222.65625 0)"/>
    </g>
   </g>
   <g id="text_27">
    <!-- 66.7% -->
    <g transform="translate(588.96 444.622153) scale(0.09 -0.09)">
     <use xlink:href="#DejaVuSans-36"/>
     <use xlink:href="#DejaVuSans-36" transform="translate(63.623047 0)"/>
     <use xlink:href="#DejaVuSans-2e" transform="translate(127.246094 0)"/>
     <use xlink:href="#DejaVuSans-37" transform="translate(159.033203 0)"/>
     <use xlink:href="#DejaVuSans-25" transform="translate(222.65625 0)"/>
    </g>
   </g>
   <g id="text_28">
    <!-- 80.0% -->
    <g transform="translate(654.788571 480.532625) scale(0.09 -0.09)">
     <use xlink:href="#DejaVuSans-38"/>
     <use xlink:href="#DejaVuSans-30" transform="translate(63.623047 0)"/>
     <use xlink:href="#DejaVuSans-2e" transform="translate(127.246094 0)"/>
     <use xlink:href="#DejaVuSans-30" transform="translate(159.033203 0)"/>
     <use xlink:href="#DejaVuSans-25" transform="translate(222.65625 0)"/>
    </g>
   </g>
   <g id="text_29">
    <!-- 75.0% -->
    <g transform="translate(630.102857 516.443098) scale(0.09 -0.09)">
     <use xlink:href="#DejaVuSans-37"/>
     <use xlink:href="#DejaVuSans-35" transform="translate(63.623047 0)"/>
     <use xlink:href="#DejaVuSans-2e" transform="translate(127.246094 0)"/>
     <use xlink:href="#DejaVuSans-30" transform="translate(159.033203 0)"/>
     <use xlink:href="#DejaVuSans-25" transform="translate(222.65625 0)"/>
    </g>
   </g>
   <g id="text_30">
    <!-- 100.0% -->
    <g transform="translate(753.531429 552.35357) scale(0.09 -0.09)">
     <use xlink:href="#DejaVuSans-31"/>
     <use xlink:href="#DejaVuSans-30" transform="translate(63.623047 0)"/>
     <use xlink:href="#DejaVuSans-30" transform="translate(127.246094 0)"/>
     <use xlink:href="#DejaVuSans-2e" transform="translate(190.869141 0)"/>
     <use xlink:href="#DejaVuSans-30" transform="translate(222.65625 0)"/>
     <use xlink:href="#DejaVuSans-25" transform="translate(286.279297 0)"/>
    </g>
   </g>
   <g id="patch_16">
    <path d="M 254.88 160.690387
L 680.022857 160.690387
L 680.022857 169.129348
L 254.88 169.129348
z
" clip-path="url(#pe9e6043d12)" style="fill: #c83127"/>
   </g>
   <g id="patch_17">
    <path d="M 254.88 196.600859
L 666.308571 196.600859
L 666.308571 205.03982
L 254.88 205.03982
z
" clip-path="url(#pe9e6043d12)" style="fill: #c83127"/>
   </g>
   <g id="patch_18">
    <path d="M 254.88 232.511332
L 666.308571 232.511332
L 666.308571 240.950293
L 254.88 240.950293
z
" clip-path="url(#pe9e6043d12)" style="fill: #c83127"/>
   </g>
   <g id="patch_19">
    <path d="M 254.88 268.421804
L 670.639398 268.421804
L 670.639398 276.860765
L 254.88 276.860765
z
" clip-path="url(#pe9e6043d12)" style="fill: #c83127"/>
   </g>
   <g id="patch_20">
    <path d="M 254.88 304.332277
L 690.510252 304.332277
L 690.510252 312.771238
L 254.88 312.771238
z
" clip-path="url(#pe9e6043d12)" style="fill: #c83127"/>
   </g>
   <g id="patch_21">
    <path d="M 254.88 340.242749
L 501.737143 340.242749
L 501.737143 348.68171
L 254.88 348.68171
z
" clip-path="url(#pe9e6043d12)" style="fill: #c83127"/>
   </g>
   <g id="patch_22">
    <path d="M 254.88 376.153222
L 713.32898 376.153222
L 713.32898 384.592183
L 254.88 384.592183
z
" clip-path="url(#pe9e6043d12)" style="fill: #c83127"/>
   </g>
   <g id="patch_23">
    <path d="M 254.88 412.063694
L 466.471837 412.063694
L 466.471837 420.502655
L 254.88 420.502655
z
" clip-path="url(#pe9e6043d12)" style="fill: #c83127"/>
   </g>
   <g id="patch_24">
    <path d="M 254.88 447.974167
L 748.594286 447.974167
L 748.594286 456.413128
L 254.88 456.413128
z
" clip-path="url(#pe9e6043d12)" style="fill: #c83127"/>
   </g>
   <g id="patch_25">
    <path d="M 254.88 483.884639
L 649.851429 483.884639
L 649.851429 492.3236
L 254.88 492.3236
z
" clip-path="url(#pe9e6043d12)" style="fill: #c83127"/>
   </g>
   <g id="patch_26">
    <path d="M 254.88 519.795112
L 748.594286 519.795112
L 748.594286 528.234073
L 254.88 528.234073
z
" clip-path="url(#pe9e6043d12)" style="fill: #c83127"/>
   </g>
   <g id="patch_27">
    <path d="M 254.88 555.705584
L 748.594286 555.705584
L 748.594286 564.144545
L 254.88 564.144545
z
" clip-path="url(#pe9e6043d12)" style="fill: #c83127"/>
   </g>
   <g id="text_31">
    <!-- 86.1% -->
    <g transform="translate(684.96 167.393305) scale(0.09 -0.09)">
     <use xlink:href="#DejaVuSans-38"/>
     <use xlink:href="#DejaVuSans-36" transform="translate(63.623047 0)"/>
     <use xlink:href="#DejaVuSans-2e" transform="translate(127.246094 0)"/>
     <use xlink:href="#DejaVuSans-31" transform="translate(159.033203 0)"/>
     <use xlink:href="#DejaVuSans-25" transform="translate(222.65625 0)"/>
    </g>
   </g>
   <g id="text_32">
    <!-- 83.3% -->
    <g transform="translate(671.245714 203.303777) scale(0.09 -0.09)">
     <use xlink:href="#DejaVuSans-38"/>
     <use xlink:href="#DejaVuSans-33" transform="translate(63.623047 0)"/>
     <use xlink:href="#DejaVuSans-2e" transform="translate(127.246094 0)"/>
     <use xlink:href="#DejaVuSans-33" transform="translate(159.033203 0)"/>
     <use xlink:href="#DejaVuSans-25" transform="translate(222.65625 0)"/>
    </g>
   </g>
   <g id="text_33">
    <!-- 83.3% -->
    <g transform="translate(671.245714 239.21425) scale(0.09 -0.09)">
     <use xlink:href="#DejaVuSans-38"/>
     <use xlink:href="#DejaVuSans-33" transform="translate(63.623047 0)"/>
     <use xlink:href="#DejaVuSans-2e" transform="translate(127.246094 0)"/>
     <use xlink:href="#DejaVuSans-33" transform="translate(159.033203 0)"/>
     <use xlink:href="#DejaVuSans-25" transform="translate(222.65625 0)"/>
    </g>
   </g>
   <g id="text_34">
    <!-- 84.2% -->
    <g transform="translate(675.576541 275.124722) scale(0.09 -0.09)">
     <use xlink:href="#DejaVuSans-38"/>
     <use xlink:href="#DejaVuSans-34" transform="translate(63.623047 0)"/>
     <use xlink:href="#DejaVuSans-2e" transform="translate(127.246094 0)"/>
     <use xlink:href="#DejaVuSans-32" transform="translate(159.033203 0)"/>
     <use xlink:href="#DejaVuSans-25" transform="translate(222.65625 0)"/>
    </g>
   </g>
   <g id="text_35">
    <!-- 88.2% -->
    <g transform="translate(695.447395 311.035195) scale(0.09 -0.09)">
     <use xlink:href="#DejaVuSans-38"/>
     <use xlink:href="#DejaVuSans-38" transform="translate(63.623047 0)"/>
     <use xlink:href="#DejaVuSans-2e" transform="translate(127.246094 0)"/>
     <use xlink:href="#DejaVuSans-32" transform="translate(159.033203 0)"/>
     <use xlink:href="#DejaVuSans-25" transform="translate(222.65625 0)"/>
    </g>
   </g>
   <g id="text_36">
    <!-- 50.0% -->
    <g transform="translate(506.674286 346.945667) scale(0.09 -0.09)">
     <use xlink:href="#DejaVuSans-35"/>
     <use xlink:href="#DejaVuSans-30" transform="translate(63.623047 0)"/>
     <use xlink:href="#DejaVuSans-2e" transform="translate(127.246094 0)"/>
     <use xlink:href="#DejaVuSans-30" transform="translate(159.033203 0)"/>
     <use xlink:href="#DejaVuSans-25" transform="translate(222.65625 0)"/>
    </g>
   </g>
   <g id="text_37">
    <!-- 92.9% -->
    <g transform="translate(718.266122 382.85614) scale(0.09 -0.09)">
     <use xlink:href="#DejaVuSans-39"/>
     <use xlink:href="#DejaVuSans-32" transform="translate(63.623047 0)"/>
     <use xlink:href="#DejaVuSans-2e" transform="translate(127.246094 0)"/>
     <use xlink:href="#DejaVuSans-39" transform="translate(159.033203 0)"/>
     <use xlink:href="#DejaVuSans-25" transform="translate(222.65625 0)"/>
    </g>
   </g>
   <g id="text_38">
    <!-- 42.9% -->
    <g transform="translate(471.40898 418.766612) scale(0.09 -0.09)">
     <use xlink:href="#DejaVuSans-34"/>
     <use xlink:href="#DejaVuSans-32" transform="translate(63.623047 0)"/>
     <use xlink:href="#DejaVuSans-2e" transform="translate(127.246094 0)"/>
     <use xlink:href="#DejaVuSans-39" transform="translate(159.033203 0)"/>
     <use xlink:href="#DejaVuSans-25" transform="translate(222.65625 0)"/>
    </g>
   </g>
   <g id="text_39">
    <!-- 100.0% -->
    <g transform="translate(753.531429 454.677085) scale(0.09 -0.09)">
     <use xlink:href="#DejaVuSans-31"/>
     <use xlink:href="#DejaVuSans-30" transform="translate(63.623047 0)"/>
     <use xlink:href="#DejaVuSans-30" transform="translate(127.246094 0)"/>
     <use xlink:href="#DejaVuSans-2e" transform="translate(190.869141 0)"/>
     <use xlink:href="#DejaVuSans-30" transform="translate(222.65625 0)"/>
     <use xlink:href="#DejaVuSans-25" transform="translate(286.279297 0)"/>
    </g>
   </g>
   <g id="text_40">
    <!-- 80.0% -->
    <g transform="translate(654.788571 490.587557) scale(0.09 -0.09)">
     <use xlink:href="#DejaVuSans-38"/>
     <use xlink:href="#DejaVuSans-30" transform="translate(63.623047 0)"/>
     <use xlink:href="#DejaVuSans-2e" transform="translate(127.246094 0)"/>
     <use xlink:href="#DejaVuSans-30" transform="translate(159.033203 0)"/>
     <use xlink:href="#DejaVuSans-25" transform="translate(222.65625 0)"/>
    </g>
   </g>
   <g id="text_41">
    <!-- 100.0% -->
    <g transform="translate(753.531429 526.49803) scale(0.09 -0.09)">
     <use xlink:href="#DejaVuSans-31"/>
     <use xlink:href="#DejaVuSans-30" transform="translate(63.623047 0)"/>
     <use xlink:href="#DejaVuSans-30" transform="translate(127.246094 0)"/>
     <use xlink:href="#DejaVuSans-2e" transform="translate(190.869141 0)"/>
     <use xlink:href="#DejaVuSans-30" transform="translate(222.65625 0)"/>
     <use xlink:href="#DejaVuSans-25" transform="translate(286.279297 0)"/>
    </g>
   </g>
   <g id="text_42">
    <!-- 100.0% -->
    <g transform="translate(753.531429 562.408502) scale(0.09 -0.09)">
     <use xlink:href="#DejaVuSans-31"/>
     <use xlink:href="#DejaVuSans-30" transform="translate(63.623047 0)"/>
     <use xlink:href="#DejaVuSans-30" transform="translate(127.246094 0)"/>
     <use xlink:href="#DejaVuSans-2e" transform="translate(190.869141 0)"/>
     <use xlink:href="#DejaVuSans-30" transform="translate(222.65625 0)"/>
     <use xlink:href="#DejaVuSans-25" transform="translate(286.279297 0)"/>
    </g>
   </g>
  </g>
  <g id="text_43">
   <!-- By query category: gains are uneven -->
   <g style="fill: #242522" transform="translate(47.52 34.2) scale(0.22 -0.22)">
    <defs>
     <path id="DejaVuSans-Bold-42" d="M 2456 2859
Q 2741 2859 2887 2984
Q 3034 3109 3034 3353
Q 3034 3594 2887 3720
Q 2741 3847 2456 3847
L 1791 3847
L 1791 2859
L 2456 2859
z
M 2497 819
Q 2859 819 3042 972
Q 3225 1125 3225 1434
Q 3225 1738 3044 1889
Q 2863 2041 2497 2041
L 1791 2041
L 1791 819
L 2497 819
z
M 3616 2497
Q 4003 2384 4215 2081
Q 4428 1778 4428 1338
Q 4428 663 3972 331
Q 3516 0 2584 0
L 588 0
L 588 4666
L 2394 4666
Q 3366 4666 3802 4372
Q 4238 4078 4238 3431
Q 4238 3091 4078 2852
Q 3919 2613 3616 2497
z
" transform="scale(0.015625)"/>
     <path id="DejaVuSans-Bold-79" d="M 78 3500
L 1197 3500
L 2138 1125
L 2938 3500
L 4056 3500
L 2584 -331
Q 2363 -916 2067 -1148
Q 1772 -1381 1288 -1381
L 641 -1381
L 641 -647
L 991 -647
Q 1275 -647 1404 -556
Q 1534 -466 1606 -231
L 1638 -134
L 78 3500
z
" transform="scale(0.015625)"/>
     <path id="DejaVuSans-Bold-20" transform="scale(0.015625)"/>
     <path id="DejaVuSans-Bold-71" d="M 2181 2772
Q 1825 2772 1636 2509
Q 1447 2247 1447 1747
Q 1447 1247 1636 984
Q 1825 722 2181 722
Q 2541 722 2730 984
Q 2919 1247 2919 1747
Q 2919 2247 2730 2509
Q 2541 2772 2181 2772
z
M 2919 506
Q 2688 197 2409 53
Q 2131 -91 1766 -91
Q 1119 -91 703 423
Q 288 938 288 1747
Q 288 2556 703 3067
Q 1119 3578 1766 3578
Q 2131 3578 2409 3434
Q 2688 3291 2919 2981
L 2919 3500
L 4044 3500
L 4044 -1331
L 2919 -1331
L 2919 506
z
" transform="scale(0.015625)"/>
     <path id="DejaVuSans-Bold-75" d="M 500 1363
L 500 3500
L 1625 3500
L 1625 3150
Q 1625 2866 1622 2436
Q 1619 2006 1619 1863
Q 1619 1441 1641 1255
Q 1663 1069 1716 984
Q 1784 875 1895 815
Q 2006 756 2150 756
Q 2500 756 2700 1025
Q 2900 1294 2900 1772
L 2900 3500
L 4019 3500
L 4019 0
L 2900 0
L 2900 506
Q 2647 200 2364 54
Q 2081 -91 1741 -91
Q 1134 -91 817 281
Q 500 653 500 1363
z
" transform="scale(0.015625)"/>
     <path id="DejaVuSans-Bold-65" d="M 4031 1759
L 4031 1441
L 1416 1441
Q 1456 1047 1700 850
Q 1944 653 2381 653
Q 2734 653 3104 758
Q 3475 863 3866 1075
L 3866 213
Q 3469 63 3072 -14
Q 2675 -91 2278 -91
Q 1328 -91 801 392
Q 275 875 275 1747
Q 275 2603 792 3093
Q 1309 3584 2216 3584
Q 3041 3584 3536 3087
Q 4031 2591 4031 1759
z
M 2881 2131
Q 2881 2450 2695 2645
Q 2509 2841 2209 2841
Q 1884 2841 1681 2658
Q 1478 2475 1428 2131
L 2881 2131
z
" transform="scale(0.015625)"/>
     <path id="DejaVuSans-Bold-72" d="M 3138 2547
Q 2991 2616 2845 2648
Q 2700 2681 2553 2681
Q 2122 2681 1889 2404
Q 1656 2128 1656 1613
L 1656 0
L 538 0
L 538 3500
L 1656 3500
L 1656 2925
Q 1872 3269 2151 3426
Q 2431 3584 2822 3584
Q 2878 3584 2943 3579
Q 3009 3575 3134 3559
L 3138 2547
z
" transform="scale(0.015625)"/>
     <path id="DejaVuSans-Bold-63" d="M 3366 3391
L 3366 2478
Q 3138 2634 2908 2709
Q 2678 2784 2431 2784
Q 1963 2784 1702 2511
Q 1441 2238 1441 1747
Q 1441 1256 1702 982
Q 1963 709 2431 709
Q 2694 709 2930 787
Q 3166 866 3366 1019
L 3366 103
Q 3103 6 2833 -42
Q 2563 -91 2291 -91
Q 1344 -91 809 395
Q 275 881 275 1747
Q 275 2613 809 3098
Q 1344 3584 2291 3584
Q 2566 3584 2833 3536
Q 3100 3488 3366 3391
z
" transform="scale(0.015625)"/>
     <path id="DejaVuSans-Bold-61" d="M 2106 1575
Q 1756 1575 1579 1456
Q 1403 1338 1403 1106
Q 1403 894 1545 773
Q 1688 653 1941 653
Q 2256 653 2472 879
Q 2688 1106 2688 1447
L 2688 1575
L 2106 1575
z
M 3816 1997
L 3816 0
L 2688 0
L 2688 519
Q 2463 200 2181 54
Q 1900 -91 1497 -91
Q 953 -91 614 226
Q 275 544 275 1050
Q 275 1666 698 1953
Q 1122 2241 2028 2241
L 2688 2241
L 2688 2328
Q 2688 2594 2478 2717
Q 2269 2841 1825 2841
Q 1466 2841 1156 2769
Q 847 2697 581 2553
L 581 3406
Q 941 3494 1303 3539
Q 1666 3584 2028 3584
Q 2975 3584 3395 3211
Q 3816 2838 3816 1997
z
" transform="scale(0.015625)"/>
     <path id="DejaVuSans-Bold-74" d="M 1759 4494
L 1759 3500
L 2913 3500
L 2913 2700
L 1759 2700
L 1759 1216
Q 1759 972 1856 886
Q 1953 800 2241 800
L 2816 800
L 2816 0
L 1856 0
Q 1194 0 917 276
Q 641 553 641 1216
L 641 2700
L 84 2700
L 84 3500
L 641 3500
L 641 4494
L 1759 4494
z
" transform="scale(0.015625)"/>
     <path id="DejaVuSans-Bold-67" d="M 2919 594
Q 2688 288 2409 144
Q 2131 0 1766 0
Q 1125 0 706 504
Q 288 1009 288 1791
Q 288 2575 706 3076
Q 1125 3578 1766 3578
Q 2131 3578 2409 3434
Q 2688 3291 2919 2981
L 2919 3500
L 4044 3500
L 4044 353
Q 4044 -491 3511 -936
Q 2978 -1381 1966 -1381
Q 1638 -1381 1331 -1331
Q 1025 -1281 716 -1178
L 716 -306
Q 1009 -475 1290 -558
Q 1572 -641 1856 -641
Q 2406 -641 2662 -400
Q 2919 -159 2919 353
L 2919 594
z
M 2181 2772
Q 1834 2772 1640 2515
Q 1447 2259 1447 1791
Q 1447 1309 1634 1061
Q 1822 813 2181 813
Q 2531 813 2725 1069
Q 2919 1325 2919 1791
Q 2919 2259 2725 2515
Q 2531 2772 2181 2772
z
" transform="scale(0.015625)"/>
     <path id="DejaVuSans-Bold-6f" d="M 2203 2784
Q 1831 2784 1636 2517
Q 1441 2250 1441 1747
Q 1441 1244 1636 976
Q 1831 709 2203 709
Q 2569 709 2762 976
Q 2956 1244 2956 1747
Q 2956 2250 2762 2517
Q 2569 2784 2203 2784
z
M 2203 3584
Q 3106 3584 3614 3096
Q 4122 2609 4122 1747
Q 4122 884 3614 396
Q 3106 -91 2203 -91
Q 1297 -91 786 396
Q 275 884 275 1747
Q 275 2609 786 3096
Q 1297 3584 2203 3584
z
" transform="scale(0.015625)"/>
     <path id="DejaVuSans-Bold-3a" d="M 716 3500
L 1844 3500
L 1844 2291
L 716 2291
L 716 3500
z
M 716 1209
L 1844 1209
L 1844 0
L 716 0
L 716 1209
z
" transform="scale(0.015625)"/>
     <path id="DejaVuSans-Bold-69" d="M 538 3500
L 1656 3500
L 1656 0
L 538 0
L 538 3500
z
M 538 4863
L 1656 4863
L 1656 3950
L 538 3950
L 538 4863
z
" transform="scale(0.015625)"/>
     <path id="DejaVuSans-Bold-6e" d="M 4056 2131
L 4056 0
L 2931 0
L 2931 347
L 2931 1631
Q 2931 2084 2911 2256
Q 2891 2428 2841 2509
Q 2775 2619 2662 2680
Q 2550 2741 2406 2741
Q 2056 2741 1856 2470
Q 1656 2200 1656 1722
L 1656 0
L 538 0
L 538 3500
L 1656 3500
L 1656 2988
Q 1909 3294 2193 3439
Q 2478 3584 2822 3584
Q 3428 3584 3742 3212
Q 4056 2841 4056 2131
z
" transform="scale(0.015625)"/>
     <path id="DejaVuSans-Bold-73" d="M 3272 3391
L 3272 2541
Q 2913 2691 2578 2766
Q 2244 2841 1947 2841
Q 1628 2841 1473 2761
Q 1319 2681 1319 2516
Q 1319 2381 1436 2309
Q 1553 2238 1856 2203
L 2053 2175
Q 2913 2066 3209 1816
Q 3506 1566 3506 1031
Q 3506 472 3093 190
Q 2681 -91 1863 -91
Q 1516 -91 1145 -36
Q 775 19 384 128
L 384 978
Q 719 816 1070 734
Q 1422 653 1784 653
Q 2113 653 2278 743
Q 2444 834 2444 1013
Q 2444 1163 2330 1236
Q 2216 1309 1875 1350
L 1678 1375
Q 931 1469 631 1722
Q 331 1975 331 2491
Q 331 3047 712 3315
Q 1094 3584 1881 3584
Q 2191 3584 2531 3537
Q 2872 3491 3272 3391
z
" transform="scale(0.015625)"/>
     <path id="DejaVuSans-Bold-76" d="M 97 3500
L 1216 3500
L 2088 1081
L 2956 3500
L 4078 3500
L 2700 0
L 1472 0
L 97 3500
z
" transform="scale(0.015625)"/>
    </defs>
    <use xlink:href="#DejaVuSans-Bold-42"/>
    <use xlink:href="#DejaVuSans-Bold-79" transform="translate(76.220703 0)"/>
    <use xlink:href="#DejaVuSans-Bold-20" transform="translate(141.40625 0)"/>
    <use xlink:href="#DejaVuSans-Bold-71" transform="translate(176.220703 0)"/>
    <use xlink:href="#DejaVuSans-Bold-75" transform="translate(247.802734 0)"/>
    <use xlink:href="#DejaVuSans-Bold-65" transform="translate(318.994141 0)"/>
    <use xlink:href="#DejaVuSans-Bold-72" transform="translate(386.816406 0)"/>
    <use xlink:href="#DejaVuSans-Bold-79" transform="translate(436.132812 0)"/>
    <use xlink:href="#DejaVuSans-Bold-20" transform="translate(501.318359 0)"/>
    <use xlink:href="#DejaVuSans-Bold-63" transform="translate(536.132812 0)"/>
    <use xlink:href="#DejaVuSans-Bold-61" transform="translate(595.410156 0)"/>
    <use xlink:href="#DejaVuSans-Bold-74" transform="translate(662.890625 0)"/>
    <use xlink:href="#DejaVuSans-Bold-65" transform="translate(710.693359 0)"/>
    <use xlink:href="#DejaVuSans-Bold-67" transform="translate(778.515625 0)"/>
    <use xlink:href="#DejaVuSans-Bold-6f" transform="translate(850.097656 0)"/>
    <use xlink:href="#DejaVuSans-Bold-72" transform="translate(918.798828 0)"/>
    <use xlink:href="#DejaVuSans-Bold-79" transform="translate(968.115234 0)"/>
    <use xlink:href="#DejaVuSans-Bold-3a" transform="translate(1033.300781 0)"/>
    <use xlink:href="#DejaVuSans-Bold-20" transform="translate(1073.291016 0)"/>
    <use xlink:href="#DejaVuSans-Bold-67" transform="translate(1108.105469 0)"/>
    <use xlink:href="#DejaVuSans-Bold-61" transform="translate(1179.6875 0)"/>
    <use xlink:href="#DejaVuSans-Bold-69" transform="translate(1247.167969 0)"/>
    <use xlink:href="#DejaVuSans-Bold-6e" transform="translate(1281.445312 0)"/>
    <use xlink:href="#DejaVuSans-Bold-73" transform="translate(1352.636719 0)"/>
    <use xlink:href="#DejaVuSans-Bold-20" transform="translate(1412.158203 0)"/>
    <use xlink:href="#DejaVuSans-Bold-61" transform="translate(1446.972656 0)"/>
    <use xlink:href="#DejaVuSans-Bold-72" transform="translate(1514.453125 0)"/>
    <use xlink:href="#DejaVuSans-Bold-65" transform="translate(1563.769531 0)"/>
    <use xlink:href="#DejaVuSans-Bold-20" transform="translate(1631.591797 0)"/>
    <use xlink:href="#DejaVuSans-Bold-75" transform="translate(1666.40625 0)"/>
    <use xlink:href="#DejaVuSans-Bold-6e" transform="translate(1737.597656 0)"/>
    <use xlink:href="#DejaVuSans-Bold-65" transform="translate(1808.789062 0)"/>
    <use xlink:href="#DejaVuSans-Bold-76" transform="translate(1876.611328 0)"/>
    <use xlink:href="#DejaVuSans-Bold-65" transform="translate(1941.796875 0)"/>
    <use xlink:href="#DejaVuSans-Bold-6e" transform="translate(2009.619141 0)"/>
   </g>
  </g>
  <g id="text_44">
   <!-- Topic Top-1 across every positive-query category, with sample counts. -->
   <g style="fill: #68736c" transform="translate(47.52 64.296) scale(0.12 -0.12)">
    <defs>
     <path id="DejaVuSans-71" d="M 947 1747
Q 947 1113 1208 752
Q 1469 391 1925 391
Q 2381 391 2643 752
Q 2906 1113 2906 1747
Q 2906 2381 2643 2742
Q 2381 3103 1925 3103
Q 1469 3103 1208 2742
Q 947 2381 947 1747
z
M 2906 525
Q 2725 213 2448 61
Q 2172 -91 1784 -91
Q 1150 -91 751 415
Q 353 922 353 1747
Q 353 2572 751 3078
Q 1150 3584 1784 3584
Q 2172 3584 2448 3432
Q 2725 3281 2906 2969
L 2906 3500
L 3481 3500
L 3481 -1331
L 2906 -1331
L 2906 525
z
" transform="scale(0.015625)"/>
     <path id="DejaVuSans-2c" d="M 750 794
L 1409 794
L 1409 256
L 897 -744
L 494 -744
L 750 256
L 750 794
z
" transform="scale(0.015625)"/>
     <path id="DejaVuSans-77" d="M 269 3500
L 844 3500
L 1563 769
L 2278 3500
L 2956 3500
L 3675 769
L 4391 3500
L 4966 3500
L 4050 0
L 3372 0
L 2619 2869
L 1863 0
L 1184 0
L 269 3500
z
" transform="scale(0.015625)"/>
     <path id="DejaVuSans-68" d="M 3513 2113
L 3513 0
L 2938 0
L 2938 2094
Q 2938 2591 2744 2837
Q 2550 3084 2163 3084
Q 1697 3084 1428 2787
Q 1159 2491 1159 1978
L 1159 0
L 581 0
L 581 4863
L 1159 4863
L 1159 2956
Q 1366 3272 1645 3428
Q 1925 3584 2291 3584
Q 2894 3584 3203 3211
Q 3513 2838 3513 2113
z
" transform="scale(0.015625)"/>
    </defs>
    <use xlink:href="#DejaVuSans-54"/>
    <use xlink:href="#DejaVuSans-6f" transform="translate(44.083984 0)"/>
    <use xlink:href="#DejaVuSans-70" transform="translate(105.265625 0)"/>
    <use xlink:href="#DejaVuSans-69" transform="translate(168.742188 0)"/>
    <use xlink:href="#DejaVuSans-63" transform="translate(196.525391 0)"/>
    <use xlink:href="#DejaVuSans-20" transform="translate(251.505859 0)"/>
    <use xlink:href="#DejaVuSans-54" transform="translate(283.292969 0)"/>
    <use xlink:href="#DejaVuSans-6f" transform="translate(327.376953 0)"/>
    <use xlink:href="#DejaVuSans-70" transform="translate(388.558594 0)"/>
    <use xlink:href="#DejaVuSans-2d" transform="translate(452.035156 0)"/>
    <use xlink:href="#DejaVuSans-31" transform="translate(488.119141 0)"/>
    <use xlink:href="#DejaVuSans-20" transform="translate(551.742188 0)"/>
    <use xlink:href="#DejaVuSans-61" transform="translate(583.529297 0)"/>
    <use xlink:href="#DejaVuSans-63" transform="translate(644.808594 0)"/>
    <use xlink:href="#DejaVuSans-72" transform="translate(699.789062 0)"/>
    <use xlink:href="#DejaVuSans-6f" transform="translate(738.652344 0)"/>
    <use xlink:href="#DejaVuSans-73" transform="translate(799.833984 0)"/>
    <use xlink:href="#DejaVuSans-73" transform="translate(851.933594 0)"/>
    <use xlink:href="#DejaVuSans-20" transform="translate(904.033203 0)"/>
    <use xlink:href="#DejaVuSans-65" transform="translate(935.820312 0)"/>
    <use xlink:href="#DejaVuSans-76" transform="translate(997.34375 0)"/>
    <use xlink:href="#DejaVuSans-65" transform="translate(1056.523438 0)"/>
    <use xlink:href="#DejaVuSans-72" transform="translate(1118.046875 0)"/>
    <use xlink:href="#DejaVuSans-79" transform="translate(1159.160156 0)"/>
    <use xlink:href="#DejaVuSans-20" transform="translate(1218.339844 0)"/>
    <use xlink:href="#DejaVuSans-70" transform="translate(1250.126953 0)"/>
    <use xlink:href="#DejaVuSans-6f" transform="translate(1313.603516 0)"/>
    <use xlink:href="#DejaVuSans-73" transform="translate(1374.785156 0)"/>
    <use xlink:href="#DejaVuSans-69" transform="translate(1426.884766 0)"/>
    <use xlink:href="#DejaVuSans-74" transform="translate(1454.667969 0)"/>
    <use xlink:href="#DejaVuSans-69" transform="translate(1493.876953 0)"/>
    <use xlink:href="#DejaVuSans-76" transform="translate(1521.660156 0)"/>
    <use xlink:href="#DejaVuSans-65" transform="translate(1580.839844 0)"/>
    <use xlink:href="#DejaVuSans-2d" transform="translate(1642.363281 0)"/>
    <use xlink:href="#DejaVuSans-71" transform="translate(1678.447266 0)"/>
    <use xlink:href="#DejaVuSans-75" transform="translate(1741.923828 0)"/>
    <use xlink:href="#DejaVuSans-65" transform="translate(1805.302734 0)"/>
    <use xlink:href="#DejaVuSans-72" transform="translate(1866.826172 0)"/>
    <use xlink:href="#DejaVuSans-79" transform="translate(1907.939453 0)"/>
    <use xlink:href="#DejaVuSans-20" transform="translate(1967.119141 0)"/>
    <use xlink:href="#DejaVuSans-63" transform="translate(1998.90625 0)"/>
    <use xlink:href="#DejaVuSans-61" transform="translate(2053.886719 0)"/>
    <use xlink:href="#DejaVuSans-74" transform="translate(2115.166016 0)"/>
    <use xlink:href="#DejaVuSans-65" transform="translate(2154.375 0)"/>
    <use xlink:href="#DejaVuSans-67" transform="translate(2215.898438 0)"/>
    <use xlink:href="#DejaVuSans-6f" transform="translate(2279.375 0)"/>
    <use xlink:href="#DejaVuSans-72" transform="translate(2340.556641 0)"/>
    <use xlink:href="#DejaVuSans-79" transform="translate(2381.669922 0)"/>
    <use xlink:href="#DejaVuSans-2c" transform="translate(2440.849609 0)"/>
    <use xlink:href="#DejaVuSans-20" transform="translate(2472.636719 0)"/>
    <use xlink:href="#DejaVuSans-77" transform="translate(2504.423828 0)"/>
    <use xlink:href="#DejaVuSans-69" transform="translate(2586.210938 0)"/>
    <use xlink:href="#DejaVuSans-74" transform="translate(2613.994141 0)"/>
    <use xlink:href="#DejaVuSans-68" transform="translate(2653.203125 0)"/>
    <use xlink:href="#DejaVuSans-20" transform="translate(2716.582031 0)"/>
    <use xlink:href="#DejaVuSans-73" transform="translate(2748.369141 0)"/>
    <use xlink:href="#DejaVuSans-61" transform="translate(2800.46875 0)"/>
    <use xlink:href="#DejaVuSans-6d" transform="translate(2861.748047 0)"/>
    <use xlink:href="#DejaVuSans-70" transform="translate(2959.160156 0)"/>
    <use xlink:href="#DejaVuSans-6c" transform="translate(3022.636719 0)"/>
    <use xlink:href="#DejaVuSans-65" transform="translate(3050.419922 0)"/>
    <use xlink:href="#DejaVuSans-20" transform="translate(3111.943359 0)"/>
    <use xlink:href="#DejaVuSans-63" transform="translate(3143.730469 0)"/>
    <use xlink:href="#DejaVuSans-6f" transform="translate(3198.710938 0)"/>
    <use xlink:href="#DejaVuSans-75" transform="translate(3259.892578 0)"/>
    <use xlink:href="#DejaVuSans-6e" transform="translate(3323.271484 0)"/>
    <use xlink:href="#DejaVuSans-74" transform="translate(3386.650391 0)"/>
    <use xlink:href="#DejaVuSans-73" transform="translate(3425.859375 0)"/>
    <use xlink:href="#DejaVuSans-2e" transform="translate(3477.958984 0)"/>
   </g>
  </g>
  <g id="text_45">
   <!-- Small categories are descriptive: 100% at n=2 is not a reliability claim. Lexical rankings vary across repeated rounds. -->
   <g style="fill: #68736c" transform="translate(47.52 639.54) scale(0.1 -0.1)">
    <defs>
     <path id="DejaVuSans-53" d="M 3425 4513
L 3425 3897
Q 3066 4069 2747 4153
Q 2428 4238 2131 4238
Q 1616 4238 1336 4038
Q 1056 3838 1056 3469
Q 1056 3159 1242 3001
Q 1428 2844 1947 2747
L 2328 2669
Q 3034 2534 3370 2195
Q 3706 1856 3706 1288
Q 3706 609 3251 259
Q 2797 -91 1919 -91
Q 1588 -91 1214 -16
Q 841 59 441 206
L 441 856
Q 825 641 1194 531
Q 1563 422 1919 422
Q 2459 422 2753 634
Q 3047 847 3047 1241
Q 3047 1584 2836 1778
Q 2625 1972 2144 2069
L 1759 2144
Q 1053 2284 737 2584
Q 422 2884 422 3419
Q 422 4038 858 4394
Q 1294 4750 2059 4750
Q 2388 4750 2728 4690
Q 3069 4631 3425 4513
z
" transform="scale(0.015625)"/>
     <path id="DejaVuSans-3a" d="M 750 794
L 1409 794
L 1409 0
L 750 0
L 750 794
z
M 750 3309
L 1409 3309
L 1409 2516
L 750 2516
L 750 3309
z
" transform="scale(0.015625)"/>
     <path id="DejaVuSans-78" d="M 3513 3500
L 2247 1797
L 3578 0
L 2900 0
L 1881 1375
L 863 0
L 184 0
L 1544 1831
L 300 3500
L 978 3500
L 1906 2253
L 2834 3500
L 3513 3500
z
" transform="scale(0.015625)"/>
    </defs>
    <use xlink:href="#DejaVuSans-53"/>
    <use xlink:href="#DejaVuSans-6d" transform="translate(63.476562 0)"/>
    <use xlink:href="#DejaVuSans-61" transform="translate(160.888672 0)"/>
    <use xlink:href="#DejaVuSans-6c" transform="translate(222.167969 0)"/>
    <use xlink:href="#DejaVuSans-6c" transform="translate(249.951172 0)"/>
    <use xlink:href="#DejaVuSans-20" transform="translate(277.734375 0)"/>
    <use xlink:href="#DejaVuSans-63" transform="translate(309.521484 0)"/>
    <use xlink:href="#DejaVuSans-61" transform="translate(364.501953 0)"/>
    <use xlink:href="#DejaVuSans-74" transform="translate(425.78125 0)"/>
    <use xlink:href="#DejaVuSans-65" transform="translate(464.990234 0)"/>
    <use xlink:href="#DejaVuSans-67" transform="translate(526.513672 0)"/>
    <use xlink:href="#DejaVuSans-6f" transform="translate(589.990234 0)"/>
    <use xlink:href="#DejaVuSans-72" transform="translate(651.171875 0)"/>
    <use xlink:href="#DejaVuSans-69" transform="translate(692.285156 0)"/>
    <use xlink:href="#DejaVuSans-65" transform="translate(720.068359 0)"/>
    <use xlink:href="#DejaVuSans-73" transform="translate(781.591797 0)"/>
    <use xlink:href="#DejaVuSans-20" transform="translate(833.691406 0)"/>
    <use xlink:href="#DejaVuSans-61" transform="translate(865.478516 0)"/>
    <use xlink:href="#DejaVuSans-72" transform="translate(926.757812 0)"/>
    <use xlink:href="#DejaVuSans-65" transform="translate(965.621094 0)"/>
    <use xlink:href="#DejaVuSans-20" transform="translate(1027.144531 0)"/>
    <use xlink:href="#DejaVuSans-64" transform="translate(1058.931641 0)"/>
    <use xlink:href="#DejaVuSans-65" transform="translate(1122.408203 0)"/>
    <use xlink:href="#DejaVuSans-73" transform="translate(1183.931641 0)"/>
    <use xlink:href="#DejaVuSans-63" transform="translate(1236.03125 0)"/>
    <use xlink:href="#DejaVuSans-72" transform="translate(1291.011719 0)"/>
    <use xlink:href="#DejaVuSans-69" transform="translate(1332.125 0)"/>
    <use xlink:href="#DejaVuSans-70" transform="translate(1359.908203 0)"/>
    <use xlink:href="#DejaVuSans-74" transform="translate(1423.384766 0)"/>
    <use xlink:href="#DejaVuSans-69" transform="translate(1462.59375 0)"/>
    <use xlink:href="#DejaVuSans-76" transform="translate(1490.376953 0)"/>
    <use xlink:href="#DejaVuSans-65" transform="translate(1549.556641 0)"/>
    <use xlink:href="#DejaVuSans-3a" transform="translate(1611.080078 0)"/>
    <use xlink:href="#DejaVuSans-20" transform="translate(1644.771484 0)"/>
    <use xlink:href="#DejaVuSans-31" transform="translate(1676.558594 0)"/>
    <use xlink:href="#DejaVuSans-30" transform="translate(1740.181641 0)"/>
    <use xlink:href="#DejaVuSans-30" transform="translate(1803.804688 0)"/>
    <use xlink:href="#DejaVuSans-25" transform="translate(1867.427734 0)"/>
    <use xlink:href="#DejaVuSans-20" transform="translate(1962.447266 0)"/>
    <use xlink:href="#DejaVuSans-61" transform="translate(1994.234375 0)"/>
    <use xlink:href="#DejaVuSans-74" transform="translate(2055.513672 0)"/>
    <use xlink:href="#DejaVuSans-20" transform="translate(2094.722656 0)"/>
    <use xlink:href="#DejaVuSans-6e" transform="translate(2126.509766 0)"/>
    <use xlink:href="#DejaVuSans-3d" transform="translate(2189.888672 0)"/>
    <use xlink:href="#DejaVuSans-32" transform="translate(2273.677734 0)"/>
    <use xlink:href="#DejaVuSans-20" transform="translate(2337.300781 0)"/>
    <use xlink:href="#DejaVuSans-69" transform="translate(2369.087891 0)"/>
    <use xlink:href="#DejaVuSans-73" transform="translate(2396.871094 0)"/>
    <use xlink:href="#DejaVuSans-20" transform="translate(2448.970703 0)"/>
    <use xlink:href="#DejaVuSans-6e" transform="translate(2480.757812 0)"/>
    <use xlink:href="#DejaVuSans-6f" transform="translate(2544.136719 0)"/>
    <use xlink:href="#DejaVuSans-74" transform="translate(2605.318359 0)"/>
    <use xlink:href="#DejaVuSans-20" transform="translate(2644.527344 0)"/>
    <use xlink:href="#DejaVuSans-61" transform="translate(2676.314453 0)"/>
    <use xlink:href="#DejaVuSans-20" transform="translate(2737.59375 0)"/>
    <use xlink:href="#DejaVuSans-72" transform="translate(2769.380859 0)"/>
    <use xlink:href="#DejaVuSans-65" transform="translate(2808.244141 0)"/>
    <use xlink:href="#DejaVuSans-6c" transform="translate(2869.767578 0)"/>
    <use xlink:href="#DejaVuSans-69" transform="translate(2897.550781 0)"/>
    <use xlink:href="#DejaVuSans-61" transform="translate(2925.333984 0)"/>
    <use xlink:href="#DejaVuSans-62" transform="translate(2986.613281 0)"/>
    <use xlink:href="#DejaVuSans-69" transform="translate(3050.089844 0)"/>
    <use xlink:href="#DejaVuSans-6c" transform="translate(3077.873047 0)"/>
    <use xlink:href="#DejaVuSans-69" transform="translate(3105.65625 0)"/>
    <use xlink:href="#DejaVuSans-74" transform="translate(3133.439453 0)"/>
    <use xlink:href="#DejaVuSans-79" transform="translate(3172.648438 0)"/>
    <use xlink:href="#DejaVuSans-20" transform="translate(3231.828125 0)"/>
    <use xlink:href="#DejaVuSans-63" transform="translate(3263.615234 0)"/>
    <use xlink:href="#DejaVuSans-6c" transform="translate(3318.595703 0)"/>
    <use xlink:href="#DejaVuSans-61" transform="translate(3346.378906 0)"/>
    <use xlink:href="#DejaVuSans-69" transform="translate(3407.658203 0)"/>
    <use xlink:href="#DejaVuSans-6d" transform="translate(3435.441406 0)"/>
    <use xlink:href="#DejaVuSans-2e" transform="translate(3532.853516 0)"/>
    <use xlink:href="#DejaVuSans-20" transform="translate(3564.640625 0)"/>
    <use xlink:href="#DejaVuSans-4c" transform="translate(3596.427734 0)"/>
    <use xlink:href="#DejaVuSans-65" transform="translate(3650.390625 0)"/>
    <use xlink:href="#DejaVuSans-78" transform="translate(3710.164062 0)"/>
    <use xlink:href="#DejaVuSans-69" transform="translate(3769.34375 0)"/>
    <use xlink:href="#DejaVuSans-63" transform="translate(3797.126953 0)"/>
    <use xlink:href="#DejaVuSans-61" transform="translate(3852.107422 0)"/>
    <use xlink:href="#DejaVuSans-6c" transform="translate(3913.386719 0)"/>
    <use xlink:href="#DejaVuSans-20" transform="translate(3941.169922 0)"/>
    <use xlink:href="#DejaVuSans-72" transform="translate(3972.957031 0)"/>
    <use xlink:href="#DejaVuSans-61" transform="translate(4014.070312 0)"/>
    <use xlink:href="#DejaVuSans-6e" transform="translate(4075.349609 0)"/>
    <use xlink:href="#DejaVuSans-6b" transform="translate(4138.728516 0)"/>
    <use xlink:href="#DejaVuSans-69" transform="translate(4196.638672 0)"/>
    <use xlink:href="#DejaVuSans-6e" transform="translate(4224.421875 0)"/>
    <use xlink:href="#DejaVuSans-67" transform="translate(4287.800781 0)"/>
    <use xlink:href="#DejaVuSans-73" transform="translate(4351.277344 0)"/>
    <use xlink:href="#DejaVuSans-20" transform="translate(4403.376953 0)"/>
    <use xlink:href="#DejaVuSans-76" transform="translate(4435.164062 0)"/>
    <use xlink:href="#DejaVuSans-61" transform="translate(4494.34375 0)"/>
    <use xlink:href="#DejaVuSans-72" transform="translate(4555.623047 0)"/>
    <use xlink:href="#DejaVuSans-79" transform="translate(4596.736328 0)"/>
    <use xlink:href="#DejaVuSans-20" transform="translate(4655.916016 0)"/>
    <use xlink:href="#DejaVuSans-61" transform="translate(4687.703125 0)"/>
    <use xlink:href="#DejaVuSans-63" transform="translate(4748.982422 0)"/>
    <use xlink:href="#DejaVuSans-72" transform="translate(4803.962891 0)"/>
    <use xlink:href="#DejaVuSans-6f" transform="translate(4842.826172 0)"/>
    <use xlink:href="#DejaVuSans-73" transform="translate(4904.007812 0)"/>
    <use xlink:href="#DejaVuSans-73" transform="translate(4956.107422 0)"/>
    <use xlink:href="#DejaVuSans-20" transform="translate(5008.207031 0)"/>
    <use xlink:href="#DejaVuSans-72" transform="translate(5039.994141 0)"/>
    <use xlink:href="#DejaVuSans-65" transform="translate(5078.857422 0)"/>
    <use xlink:href="#DejaVuSans-70" transform="translate(5140.380859 0)"/>
    <use xlink:href="#DejaVuSans-65" transform="translate(5203.857422 0)"/>
    <use xlink:href="#DejaVuSans-61" transform="translate(5265.380859 0)"/>
    <use xlink:href="#DejaVuSans-74" transform="translate(5326.660156 0)"/>
    <use xlink:href="#DejaVuSans-65" transform="translate(5365.869141 0)"/>
    <use xlink:href="#DejaVuSans-64" transform="translate(5427.392578 0)"/>
    <use xlink:href="#DejaVuSans-20" transform="translate(5490.869141 0)"/>
    <use xlink:href="#DejaVuSans-72" transform="translate(5522.65625 0)"/>
    <use xlink:href="#DejaVuSans-6f" transform="translate(5561.519531 0)"/>
    <use xlink:href="#DejaVuSans-75" transform="translate(5622.701172 0)"/>
    <use xlink:href="#DejaVuSans-6e" transform="translate(5686.080078 0)"/>
    <use xlink:href="#DejaVuSans-64" transform="translate(5749.458984 0)"/>
    <use xlink:href="#DejaVuSans-73" transform="translate(5812.935547 0)"/>
    <use xlink:href="#DejaVuSans-2e" transform="translate(5865.035156 0)"/>
   </g>
  </g>
  <g id="text_46">
   <!-- Source: measurements.json (auditable request-level data included) -->
   <g style="fill: #68736c" transform="translate(47.52 660.744) scale(0.09 -0.09)">
    <defs>
     <path id="DejaVuSans-6a" d="M 603 3500
L 1178 3500
L 1178 -63
Q 1178 -731 923 -1031
Q 669 -1331 103 -1331
L -116 -1331
L -116 -844
L 38 -844
Q 366 -844 484 -692
Q 603 -541 603 -63
L 603 3500
z
M 603 4863
L 1178 4863
L 1178 4134
L 603 4134
L 603 4863
z
" transform="scale(0.015625)"/>
    </defs>
    <use xlink:href="#DejaVuSans-53"/>
    <use xlink:href="#DejaVuSans-6f" transform="translate(63.476562 0)"/>
    <use xlink:href="#DejaVuSans-75" transform="translate(124.658203 0)"/>
    <use xlink:href="#DejaVuSans-72" transform="translate(188.037109 0)"/>
    <use xlink:href="#DejaVuSans-63" transform="translate(226.900391 0)"/>
    <use xlink:href="#DejaVuSans-65" transform="translate(281.880859 0)"/>
    <use xlink:href="#DejaVuSans-3a" transform="translate(343.404297 0)"/>
    <use xlink:href="#DejaVuSans-20" transform="translate(377.095703 0)"/>
    <use xlink:href="#DejaVuSans-6d" transform="translate(408.882812 0)"/>
    <use xlink:href="#DejaVuSans-65" transform="translate(506.294922 0)"/>
    <use xlink:href="#DejaVuSans-61" transform="translate(567.818359 0)"/>
    <use xlink:href="#DejaVuSans-73" transform="translate(629.097656 0)"/>
    <use xlink:href="#DejaVuSans-75" transform="translate(681.197266 0)"/>
    <use xlink:href="#DejaVuSans-72" transform="translate(744.576172 0)"/>
    <use xlink:href="#DejaVuSans-65" transform="translate(783.439453 0)"/>
    <use xlink:href="#DejaVuSans-6d" transform="translate(844.962891 0)"/>
    <use xlink:href="#DejaVuSans-65" transform="translate(942.375 0)"/>
    <use xlink:href="#DejaVuSans-6e" transform="translate(1003.898438 0)"/>
    <use xlink:href="#DejaVuSans-74" transform="translate(1067.277344 0)"/>
    <use xlink:href="#DejaVuSans-73" transform="translate(1106.486328 0)"/>
    <use xlink:href="#DejaVuSans-2e" transform="translate(1158.585938 0)"/>
    <use xlink:href="#DejaVuSans-6a" transform="translate(1190.373047 0)"/>
    <use xlink:href="#DejaVuSans-73" transform="translate(1218.15625 0)"/>
    <use xlink:href="#DejaVuSans-6f" transform="translate(1270.255859 0)"/>
    <use xlink:href="#DejaVuSans-6e" transform="translate(1331.4375 0)"/>
    <use xlink:href="#DejaVuSans-20" transform="translate(1394.816406 0)"/>
    <use xlink:href="#DejaVuSans-28" transform="translate(1426.603516 0)"/>
    <use xlink:href="#DejaVuSans-61" transform="translate(1465.617188 0)"/>
    <use xlink:href="#DejaVuSans-75" transform="translate(1526.896484 0)"/>
    <use xlink:href="#DejaVuSans-64" transform="translate(1590.275391 0)"/>
    <use xlink:href="#DejaVuSans-69" transform="translate(1653.751953 0)"/>
    <use xlink:href="#DejaVuSans-74" transform="translate(1681.535156 0)"/>
    <use xlink:href="#DejaVuSans-61" transform="translate(1720.744141 0)"/>
    <use xlink:href="#DejaVuSans-62" transform="translate(1782.023438 0)"/>
    <use xlink:href="#DejaVuSans-6c" transform="translate(1845.5 0)"/>
    <use xlink:href="#DejaVuSans-65" transform="translate(1873.283203 0)"/>
    <use xlink:href="#DejaVuSans-20" transform="translate(1934.806641 0)"/>
    <use xlink:href="#DejaVuSans-72" transform="translate(1966.59375 0)"/>
    <use xlink:href="#DejaVuSans-65" transform="translate(2005.457031 0)"/>
    <use xlink:href="#DejaVuSans-71" transform="translate(2066.980469 0)"/>
    <use xlink:href="#DejaVuSans-75" transform="translate(2130.457031 0)"/>
    <use xlink:href="#DejaVuSans-65" transform="translate(2193.835938 0)"/>
    <use xlink:href="#DejaVuSans-73" transform="translate(2255.359375 0)"/>
    <use xlink:href="#DejaVuSans-74" transform="translate(2307.458984 0)"/>
    <use xlink:href="#DejaVuSans-2d" transform="translate(2346.667969 0)"/>
    <use xlink:href="#DejaVuSans-6c" transform="translate(2382.751953 0)"/>
    <use xlink:href="#DejaVuSans-65" transform="translate(2410.535156 0)"/>
    <use xlink:href="#DejaVuSans-76" transform="translate(2472.058594 0)"/>
    <use xlink:href="#DejaVuSans-65" transform="translate(2531.238281 0)"/>
    <use xlink:href="#DejaVuSans-6c" transform="translate(2592.761719 0)"/>
    <use xlink:href="#DejaVuSans-20" transform="translate(2620.544922 0)"/>
    <use xlink:href="#DejaVuSans-64" transform="translate(2652.332031 0)"/>
    <use xlink:href="#DejaVuSans-61" transform="translate(2715.808594 0)"/>
    <use xlink:href="#DejaVuSans-74" transform="translate(2777.087891 0)"/>
    <use xlink:href="#DejaVuSans-61" transform="translate(2816.296875 0)"/>
    <use xlink:href="#DejaVuSans-20" transform="translate(2877.576172 0)"/>
    <use xlink:href="#DejaVuSans-69" transform="translate(2909.363281 0)"/>
    <use xlink:href="#DejaVuSans-6e" transform="translate(2937.146484 0)"/>
    <use xlink:href="#DejaVuSans-63" transform="translate(3000.525391 0)"/>
    <use xlink:href="#DejaVuSans-6c" transform="translate(3055.505859 0)"/>
    <use xlink:href="#DejaVuSans-75" transform="translate(3083.289062 0)"/>
    <use xlink:href="#DejaVuSans-64" transform="translate(3146.667969 0)"/>
    <use xlink:href="#DejaVuSans-65" transform="translate(3210.144531 0)"/>
    <use xlink:href="#DejaVuSans-64" transform="translate(3271.667969 0)"/>
    <use xlink:href="#DejaVuSans-29" transform="translate(3335.144531 0)"/>
   </g>
  </g>
  <g id="legend_1">
   <g id="patch_28">
    <path d="M 53.1 100.338281
L 75.1 100.338281
L 75.1 92.638281
L 53.1 92.638281
z
" style="fill: #85938c; stroke: #85938c; stroke-linejoin: miter"/>
   </g>
   <g id="text_47">
    <!-- Lexical / structured (no encoder) -->
    <g transform="translate(83.9 100.338281) scale(0.11 -0.11)">
     <use xlink:href="#DejaVuSans-4c"/>
     <use xlink:href="#DejaVuSans-65" transform="translate(53.962891 0)"/>
     <use xlink:href="#DejaVuSans-78" transform="translate(113.736328 0)"/>
     <use xlink:href="#DejaVuSans-69" transform="translate(172.916016 0)"/>
     <use xlink:href="#DejaVuSans-63" transform="translate(200.699219 0)"/>
     <use xlink:href="#DejaVuSans-61" transform="translate(255.679688 0)"/>
     <use xlink:href="#DejaVuSans-6c" transform="translate(316.958984 0)"/>
     <use xlink:href="#DejaVuSans-20" transform="translate(344.742188 0)"/>
     <use xlink:href="#DejaVuSans-2f" transform="translate(376.529297 0)"/>
     <use xlink:href="#DejaVuSans-20" transform="translate(410.220703 0)"/>
     <use xlink:href="#DejaVuSans-73" transform="translate(442.007812 0)"/>
     <use xlink:href="#DejaVuSans-74" transform="translate(494.107422 0)"/>
     <use xlink:href="#DejaVuSans-72" transform="translate(533.316406 0)"/>
     <use xlink:href="#DejaVuSans-75" transform="translate(574.429688 0)"/>
     <use xlink:href="#DejaVuSans-63" transform="translate(637.808594 0)"/>
     <use xlink:href="#DejaVuSans-74" transform="translate(692.789062 0)"/>
     <use xlink:href="#DejaVuSans-75" transform="translate(731.998047 0)"/>
     <use xlink:href="#DejaVuSans-72" transform="translate(795.376953 0)"/>
     <use xlink:href="#DejaVuSans-65" transform="translate(834.240234 0)"/>
     <use xlink:href="#DejaVuSans-64" transform="translate(895.763672 0)"/>
     <use xlink:href="#DejaVuSans-20" transform="translate(959.240234 0)"/>
     <use xlink:href="#DejaVuSans-28" transform="translate(991.027344 0)"/>
     <use xlink:href="#DejaVuSans-6e" transform="translate(1030.041016 0)"/>
     <use xlink:href="#DejaVuSans-6f" transform="translate(1093.419922 0)"/>
     <use xlink:href="#DejaVuSans-20" transform="translate(1154.601562 0)"/>
     <use xlink:href="#DejaVuSans-65" transform="translate(1186.388672 0)"/>
     <use xlink:href="#DejaVuSans-6e" transform="translate(1247.912109 0)"/>
     <use xlink:href="#DejaVuSans-63" transform="translate(1311.291016 0)"/>
     <use xlink:href="#DejaVuSans-6f" transform="translate(1366.271484 0)"/>
     <use xlink:href="#DejaVuSans-64" transform="translate(1427.453125 0)"/>
     <use xlink:href="#DejaVuSans-65" transform="translate(1490.929688 0)"/>
     <use xlink:href="#DejaVuSans-72" transform="translate(1552.453125 0)"/>
     <use xlink:href="#DejaVuSans-29" transform="translate(1593.566406 0)"/>
    </g>
   </g>
   <g id="patch_29">
    <path d="M 285.485313 100.338281
L 307.485313 100.338281
L 307.485313 92.638281
L 285.485313 92.638281
z
" style="fill: #c83127; stroke: #c83127; stroke-linejoin: miter"/>
   </g>
   <g id="text_48">
    <!-- Same topic structure + TIDE FP32 -->
    <g transform="translate(316.285313 100.338281) scale(0.11 -0.11)">
     <defs>
      <path id="DejaVuSans-2b" d="M 2944 4013
L 2944 2272
L 4684 2272
L 4684 1741
L 2944 1741
L 2944 0
L 2419 0
L 2419 1741
L 678 1741
L 678 2272
L 2419 2272
L 2419 4013
L 2944 4013
z
" transform="scale(0.015625)"/>
      <path id="DejaVuSans-49" d="M 628 4666
L 1259 4666
L 1259 0
L 628 0
L 628 4666
z
" transform="scale(0.015625)"/>
      <path id="DejaVuSans-44" d="M 1259 4147
L 1259 519
L 2022 519
Q 2988 519 3436 956
Q 3884 1394 3884 2338
Q 3884 3275 3436 3711
Q 2988 4147 2022 4147
L 1259 4147
z
M 628 4666
L 1925 4666
Q 3281 4666 3915 4102
Q 4550 3538 4550 2338
Q 4550 1131 3912 565
Q 3275 0 1925 0
L 628 0
L 628 4666
z
" transform="scale(0.015625)"/>
      <path id="DejaVuSans-45" d="M 628 4666
L 3578 4666
L 3578 4134
L 1259 4134
L 1259 2753
L 3481 2753
L 3481 2222
L 1259 2222
L 1259 531
L 3634 531
L 3634 0
L 628 0
L 628 4666
z
" transform="scale(0.015625)"/>
     </defs>
     <use xlink:href="#DejaVuSans-53"/>
     <use xlink:href="#DejaVuSans-61" transform="translate(63.476562 0)"/>
     <use xlink:href="#DejaVuSans-6d" transform="translate(124.755859 0)"/>
     <use xlink:href="#DejaVuSans-65" transform="translate(222.167969 0)"/>
     <use xlink:href="#DejaVuSans-20" transform="translate(283.691406 0)"/>
     <use xlink:href="#DejaVuSans-74" transform="translate(315.478516 0)"/>
     <use xlink:href="#DejaVuSans-6f" transform="translate(354.6875 0)"/>
     <use xlink:href="#DejaVuSans-70" transform="translate(415.869141 0)"/>
     <use xlink:href="#DejaVuSans-69" transform="translate(479.345703 0)"/>
     <use xlink:href="#DejaVuSans-63" transform="translate(507.128906 0)"/>
     <use xlink:href="#DejaVuSans-20" transform="translate(562.109375 0)"/>
     <use xlink:href="#DejaVuSans-73" transform="translate(593.896484 0)"/>
     <use xlink:href="#DejaVuSans-74" transform="translate(645.996094 0)"/>
     <use xlink:href="#DejaVuSans-72" transform="translate(685.205078 0)"/>
     <use xlink:href="#DejaVuSans-75" transform="translate(726.318359 0)"/>
     <use xlink:href="#DejaVuSans-63" transform="translate(789.697266 0)"/>
     <use xlink:href="#DejaVuSans-74" transform="translate(844.677734 0)"/>
     <use xlink:href="#DejaVuSans-75" transform="translate(883.886719 0)"/>
     <use xlink:href="#DejaVuSans-72" transform="translate(947.265625 0)"/>
     <use xlink:href="#DejaVuSans-65" transform="translate(986.128906 0)"/>
     <use xlink:href="#DejaVuSans-20" transform="translate(1047.652344 0)"/>
     <use xlink:href="#DejaVuSans-2b" transform="translate(1079.439453 0)"/>
     <use xlink:href="#DejaVuSans-20" transform="translate(1163.228516 0)"/>
     <use xlink:href="#DejaVuSans-54" transform="translate(1195.015625 0)"/>
     <use xlink:href="#DejaVuSans-49" transform="translate(1256.099609 0)"/>
     <use xlink:href="#DejaVuSans-44" transform="translate(1285.591797 0)"/>
     <use xlink:href="#DejaVuSans-45" transform="translate(1362.59375 0)"/>
     <use xlink:href="#DejaVuSans-20" transform="translate(1425.777344 0)"/>
     <use xlink:href="#DejaVuSans-46" transform="translate(1457.564453 0)"/>
     <use xlink:href="#DejaVuSans-50" transform="translate(1515.083984 0)"/>
     <use xlink:href="#DejaVuSans-33" transform="translate(1575.386719 0)"/>
     <use xlink:href="#DejaVuSans-32" transform="translate(1639.009766 0)"/>
    </g>
   </g>
  </g>
 </g>
 <defs>
  <clipPath id="pe9e6043d12">
   <rect x="254.88" y="129.96" width="552.96" height="454.86"/>
  </clipPath>
 </defs>
</svg>
